<svg xmlns="http://www.w3.org/2000/svg" style="display:none;">
    <symbol id="ic_mailigen" viewBox="1803 825 2066 1033">
		<path d="M2583.8,1300.2h-35.3c-3.1,0-5.6,2.5-5.6,5.6v17.5c0,5-6.1,7.5-9.6,3.9c-15.1-15.5-41-33.4-82-33.4 c-68.4,0-130.4,47.8-130.4,140c0,94.2,62.6,142,130.4,142c38.7,0,65.3-17,82.1-34.2c3.5-3.6,9.5-1.1,9.5,3.9v17 c0,3.1,2.5,5.6,5.6,5.6h35.3c3.1,0,5.6-2.5,5.6-5.6v-256.6C2589.4,1302.7,2586.9,1300.2,2583.8,1300.2 M2456.5,1534.5 c-55.5,0-87.8-43.2-87.8-100.7c0-65.2,42-98.7,87.8-98.7c41.3,0,89.1,30.3,89.1,99.4C2545.5,1487.4,2513.3,1534.5,2456.5,1534.5"/>
		<path d="M2819.4,1116.6h-35.3c-3.1,0-5.6,2.5-5.6,5.6v440.3c0,3.1,2.5,5.6,5.6,5.6h35.3c3.1,0,5.6-2.5,5.6-5.6 v-440.3C2824.9,1119.1,2822.4,1116.6,2819.4,1116.6"/>
		<path d="M3271.7,1300.2h-35.3c-3.1,0-5.6,2.5-5.6,5.6v17.5c0,5-6.1,7.4-9.6,3.8c-20.6-21.1-48.2-33.4-82-33.4 c-36.1,0-69,14.2-91.6,36.1c-19.4,19.4-38.7,51.6-38.7,103.9c0,54.2,20.7,87.8,38.7,105.8c20.7,20.7,52.3,36.1,91.6,36.1 c38.7,0,65.3-17,82.1-34.2c3.5-3.6,9.6-1.1,9.6,3.9v23.9c0,22.6-1.3,46.5-14.8,68.4c-15.5,25.8-38.1,37.4-71,37.4 c-20.7,0-45.2-4.5-64.5-25.8c-10.7-11.9-19.2-29.9-20.5-50.3c-0.2-2.9-2.6-5.2-5.6-5.2h-34.7c-3.2,0-5.7,2.7-5.6,5.9 c1.6,36.4,17.6,63.4,34.7,80.6c18.1,18.1,49.7,36.1,95.5,36.1c50.3,0,87.1-22.6,107.1-49.7c25.8-34.8,25.8-76.1,25.8-105.2v-255.8 C3277.3,1302.7,3274.8,1300.2,3271.7,1300.2 M3203.1,1511.9c-14.8,14.8-34.2,22.6-58.7,22.6c-24.5,0-42.6-8.4-57.4-21.9 c-25.8-23.9-30.3-55.5-30.3-78.7c0-21.9,4.5-50.3,27.1-73.6c12.9-12.9,32.3-25.2,60.7-25.2c23.9,0,45.8,9,60.7,23.9 c16.8,16.1,28.4,43.9,28.4,75.5C3233.4,1466.1,3221.2,1494.5,3203.1,1511.9"/>
		<path d="M3464.8,1293.8c-80.7,0-129.7,62-129.7,142c0,99.4,67.8,140,132.3,140c34.2,0,64.5-11,89.1-32.9 c12-10.9,22.5-24.8,30.2-38.2c1.6-2.7,0.6-6.2-2.1-7.7l-28.7-15.8c-2.7-1.5-6.2-0.5-7.6,2.3c-5.9,11.3-14.6,22.7-25.3,31.7 c-15.5,12.9-32.9,19.4-54.9,19.4c-44.8,0-81.7-32.9-85-85c-0.2-3.2,2.3-6,5.6-6h197.2c3,0,5.6-2.4,5.6-5.5 c0.2-34.2-9.4-72.5-25.3-95.2C3549.9,1319.6,3517,1293.8,3464.8,1293.8 M3536.5,1404.8H3393c-3.6,0-6.3-3.4-5.4-7 c9.4-36.4,40.2-62.7,77.2-62.7c37.1,0,67.4,24.7,77.2,62.7C3542.9,1401.3,3540.2,1404.8,3536.5,1404.8"/>
		<path d="M3848.5,1330.6c-16.1-23.9-45.2-36.8-76.8-36.8c-34.2,0-56.2,15.6-68.4,27.8c-3.1,3.1-8.4,0.9-8.4-3.5v-13 c0-2.7-2.2-4.9-4.9-4.9h-36.6c-2.7,0-4.9,2.2-4.9,4.9v258c0,2.7,2.2,4.9,4.9,4.9h36.6c2.7,0,4.9-2.2,4.9-4.9V1428 c0-19.4,1.3-51,19.4-72.3c13.6-16.1,31-20.6,47.1-20.6c20.7,0,34.9,7.7,43.9,19.4c11,14.2,12.3,32.9,12.3,49v159.6 c0,2.7,2.2,4.9,4.9,4.9h36.6c2.7,0,4.9-2.2,4.9-4.9v-160.9C3863.9,1372.5,3862,1350.6,3848.5,1330.6"/>
		<path d="M2251.4,1116.7h-35.3c-2,0-6.4,0.9-7.7,2.8l-172.8,198.2c-2.3,3.3-7.1,3.3-9.4,0l-173.8-198.2 c-1.1-1.7-4.8-2.8-6.7-2.8h-35.3c-3.1,0-5.6,2.5-5.6,5.6v339.8c0,3.1,2.5,5.6,5.6,5.6h35.3c3.1,0,9.8-2.5,9.8-5.6v-258.7 c0-4.7,1.7-7.5,4.7-3.8l166.1,190.4c2.3,3.3,7.1,3.3,9.4,0l166.1-191.8c3-3.7,4.7-2.1,4.7,2.7v261.3c0,3.1,6.7,5.6,9.8,5.6h35.3 c3.1,0,5.6-2.5,5.6-5.6v-339.8C2257,1119.2,2254.5,1116.7,2251.4,1116.7"/>
		<g>
			<g>
				<path d="M2704.3,1300.2H2669c-3.1,0-5.6,2.5-5.6,5.6v256.6c0,3.1,2.5,5.6,5.6,5.6h35.3c3.1,0,5.6-2.5,5.6-5.6 v-256.6C2709.8,1302.7,2707.3,1300.2,2704.3,1300.2"/>
				<path d="M2704.3,1200.3H2669c-3.1,0-5.6,2.5-5.6,5.6v37.2c0,3.1,2.5,5.6,5.6,5.6h35.3c3.1,0,5.6-2.5,5.6-5.6 v-37.2C2709.8,1202.8,2707.3,1200.3,2704.3,1200.3"/>
			</g>
			<g>
				<path d="M2934.6,1200.3h-35.3c-3.1,0-5.6,2.5-5.6,5.6v37.2c0,3.1,2.5,5.6,5.6,5.6h35.3c3.1,0,5.6-2.5,5.6-5.6 v-37.2C2940.2,1202.8,2937.7,1200.3,2934.6,1200.3"/>
				<path d="M2934.4,1298.9h-34.8c-3.1,0-5.6,2.5-5.6,5.6v258.2c0,3.1,2.5,5.6,5.6,5.6h34.8c3.1,0,5.6-2.5,5.6-5.6 v-258.2C2939.9,1301.4,2937.4,1298.9,2934.4,1298.9"/>
			</g>
		</g>
		<g>
			<path d="M2206.5,1561v-35.3c0-4.1,3.3-7.5,7.5-7.5h35.3c4.1,0,7.5,3.3,7.5,7.5v35.3c0,4.1-3.3,7.5-7.5,7.5H2214 C2209.8,1568.5,2206.5,1565.1,2206.5,1561z"/>
			<path d="M2005.4,1561v-35.3c0-4.1,3.3-7.5,7.5-7.5h35.3c4.1,0,7.5,3.3,7.5,7.5v35.3c0,4.1-3.3,7.5-7.5,7.5h-35.3 C2008.8,1568.5,2005.4,1565.1,2005.4,1561z"/>
			<path d="M1805,1561v-35.3c0-4.1,3.3-7.5,7.5-7.5h35.3c4.1,0,7.5,3.3,7.5,7.5v35.3c0,4.1-3.3,7.5-7.5,7.5h-35.3 C1808.3,1568.5,1805,1565.1,1805,1561z"/>
		</g>
    </symbol>
    <symbol id="ic_m" viewBox="2607 1189 455 455">
		<path d="M3054.4,1190.7h-35.3c-2,0-6.4,0.9-7.7,2.8l-172.8,198.2c-2.3,3.3-7.1,3.3-9.4,0l-173.8-198.2 c-1.1-1.7-4.8-2.8-6.7-2.8h-35.3c-3.1,0-5.6,2.5-5.6,5.6v339.8c0,3.1,2.5,5.6,5.6,5.6h35.3c3.1,0,9.8-2.5,9.8-5.6v-258.7 c0-4.7,1.7-7.5,4.7-3.8l166.1,190.4c2.3,3.3,7.1,3.3,9.4,0l166.1-191.8c3-3.7,4.7-2.1,4.7,2.7v261.3c0,3.1,6.7,5.6,9.8,5.6h35.3 c3.1,0,5.6-2.5,5.6-5.6v-339.8C3060,1193.2,3057.5,1190.7,3054.4,1190.7"/>
		<g>
			<path d="M3009.5,1635v-35.3c0-4.1,3.3-7.5,7.5-7.5h35.3c4.1,0,7.5,3.3,7.5,7.5v35.3c0,4.1-3.3,7.5-7.5,7.5H3017 C3012.8,1642.5,3009.5,1639.1,3009.5,1635z"/>
			<path d="M2808.4,1635v-35.3c0-4.1,3.3-7.5,7.5-7.5h35.3c4.1,0,7.5,3.3,7.5,7.5v35.3c0,4.1-3.3,7.5-7.5,7.5h-35.3 C2811.8,1642.5,2808.4,1639.1,2808.4,1635z"/>
			<path d="M2608,1635v-35.3c0-4.1,3.3-7.5,7.5-7.5h35.3c4.1,0,7.5,3.3,7.5,7.5v35.3c0,4.1-3.3,7.5-7.5,7.5h-35.3 C2611.3,1642.5,2608,1639.1,2608,1635z"/>
		</g>
    </symbol>
    <symbol id="ic_more_horiz" viewBox="0 0 24 24">
        <path d="M6 10c-1.1 0-2 .9-2 2s.9 2 2 2 2-.9 2-2-.9-2-2-2zm12 0c-1.1 0-2 .9-2 2s.9 2 2 2 2-.9 2-2-.9-2-2-2zm-6 0c-1.1 0-2 .9-2 2s.9 2 2 2 2-.9 2-2-.9-2-2-2z"/>
    </symbol>
    <symbol id="ic_search" viewBox="3 3 17.5 17.5">
        <path d="M15.5 14h-.79l-.28-.27C15.41 12.59 16 11.11 16 9.5 16 5.91 13.09 3 9.5 3S3 5.91 3 9.5 5.91 16 9.5 16c1.61 0 3.09-.59 4.23-1.57l.27.28v.79l5 4.99L20.49 19l-4.99-5zm-6 0C7.01 14 5 11.99 5 9.5S7.01 5 9.5 5 14 7.01 14 9.5 11.99 14 9.5 14z"/>
    </symbol>
    <symbol id="ic_add" viewBox="0 0 24 24">
        <path d="M19 13h-6v6h-2v-6H5v-2h6V5h2v6h6v2z"/>
    </symbol>
    <symbol id="ic_equalizer" viewBox="0 2 24 24">
        <path d="M10 20h4V4h-4v16zm-6 0h4v-8H4v8zM16 9v11h4V9h-4z"/>
    </symbol>
    <symbol id="ic_content_copy" viewBox="2 1 19 27">
        <path d="M16 1H4c-1.1 0-2 .9-2 2v14h2V3h12V1zm3 4H8c-1.1 0-2 .9-2 2v14c0 1.1.9 2 2 2h11c1.1 0 2-.9 2-2V7c0-1.1-.9-2-2-2zm0 16H8V7h11v14z"/>
    </symbol>
    <symbol id="ic_create" viewBox="0 2 23 23">
        <path d="M3 17.25V21h3.75L17.81 9.94l-3.75-3.75L3 17.25zM20.71 7.04c.39-.39.39-1.02 0-1.41l-2.34-2.34c-.39-.39-1.02-.39-1.41 0l-1.83 1.83 3.75 3.75 1.83-1.83z"/>
    </symbol>
    <symbol id="ic_picture_as_pdf" viewBox="0 0 24 24">
        <path d="M20 2H8c-1.1 0-2 .9-2 2v12c0 1.1.9 2 2 2h12c1.1 0 2-.9 2-2V4c0-1.1-.9-2-2-2zm-8.5 7.5c0 .83-.67 1.5-1.5 1.5H9v2H7.5V7H10c.83 0 1.5.67 1.5 1.5v1zm5 2c0 .83-.67 1.5-1.5 1.5h-2.5V7H15c.83 0 1.5.67 1.5 1.5v3zm4-3H19v1h1.5V11H19v2h-1.5V7h3v1.5zM9 9.5h1v-1H9v1zM4 6H2v14c0 1.1.9 2 2 2h14v-2H4V6zm10 5.5h1v-3h-1v3z"/>
    </symbol>
    <symbol id="ic_delete" viewBox="2 2 18 23">
        <path d="M6 19c0 1.1.9 2 2 2h8c1.1 0 2-.9 2-2V7H6v12zM19 4h-3.5l-1-1h-5l-1 1H5v2h14V4z"/>
        <path d="M0 0h24v24H0z" fill="none"/>
    </symbol>
    <symbol id="ic_contacts" viewBox="2 2 20 20">
        <path d="M16,13C15.71,13 15.38,13 15.03,13.05C16.19,13.89 17,15 17,16.5V19H23V16.5C23,14.17 18.33,13 16,13M8,13C5.67,13 1,14.17 1,16.5V19H15V16.5C15,14.17 10.33,13 8,13M8,11A3,3 0 0,0 11,8A3,3 0 0,0 8,5A3,3 0 0,0 5,8A3,3 0 0,0 8,11M16,11A3,3 0 0,0 19,8A3,3 0 0,0 16,5A3,3 0 0,0 13,8A3,3 0 0,0 16,11Z" />
    </symbol>
    <symbol id="ic_campaigns" viewBox="2 2 20 20">
        <path d="M20,8L12,13L4,8V6L12,11L20,6M20,4H4C2.89,4 2,4.89 2,6V18A2,2 0 0,0 4,20H20A2,2 0 0,0 22,18V6C22,4.89 21.1,4 20,4Z" />
    </symbol>
    <symbol id="ic_automation" viewBox="2 2 20 20">
         <path d="M16.89,15.5L18.31,16.89C19.21,15.73 19.76,14.39 19.93,13H17.91C17.77,13.87 17.43,14.72 16.89,15.5M13,17.9V19.92C14.39,19.75 15.74,19.21 16.9,18.31L15.46,16.87C14.71,17.41 13.87,17.76 13,17.9M19.93,11C19.76,9.61 19.21,8.27 18.31,7.11L16.89,8.53C17.43,9.28 17.77,10.13 17.91,11M15.55,5.55L11,1V4.07C7.06,4.56 4,7.92 4,12C4,16.08 7.05,19.44 11,19.93V17.91C8.16,17.43 6,14.97 6,12C6,9.03 8.16,6.57 11,6.09V10L15.55,5.55Z" />
    </symbol>
    <symbol id="ic_sms" viewBox="0 0 24 24">
        <path d="M20,2A2,2 0 0,1 22,4V16A2,2 0 0,1 20,18H6L2,22V4C2,2.89 2.9,2 4,2H20M5,5V7H19V5H5M5,9V11H13V9H5M5,13V15H15V13H5Z" />
    </symbol>
    <symbol id="ic_surveys" viewBox="1 1 22 22">
        <path d="M10,17L5,12L6.41,10.58L10,14.17L17.59,6.58L19,8M19,3H5C3.89,3 3,3.89 3,5V19A2,2 0 0,0 5,21H19A2,2 0 0,0 21,19V5C21,3.89 20.1,3 19,3Z" />
    </symbol>
    <symbol id="ic_account_circle" viewBox="0 0 24 24">
        <path d="M12,19.2C9.5,19.2 7.29,17.92 6,16C6.03,14 10,12.9 12,12.9C14,12.9 17.97,14 18,16C16.71,17.92 14.5,19.2 12,19.2M12,5A3,3 0 0,1 15,8A3,3 0 0,1 12,11A3,3 0 0,1 9,8A3,3 0 0,1 12,5M12,2A10,10 0 0,0 2,12A10,10 0 0,0 12,22A10,10 0 0,0 22,12C22,6.47 17.5,2 12,2Z" />
    </symbol>
    <symbol id="ic_settings" viewBox="0 0 24 24">
        <path d="M12,15.5A3.5,3.5 0 0,1 8.5,12A3.5,3.5 0 0,1 12,8.5A3.5,3.5 0 0,1 15.5,12A3.5,3.5 0 0,1 12,15.5M19.43,12.97C19.47,12.65 19.5,12.33 19.5,12C19.5,11.67 19.47,11.34 19.43,11L21.54,9.37C21.73,9.22 21.78,8.95 21.66,8.73L19.66,5.27C19.54,5.05 19.27,4.96 19.05,5.05L16.56,6.05C16.04,5.66 15.5,5.32 14.87,5.07L14.5,2.42C14.46,2.18 14.25,2 14,2H10C9.75,2 9.54,2.18 9.5,2.42L9.13,5.07C8.5,5.32 7.96,5.66 7.44,6.05L4.95,5.05C4.73,4.96 4.46,5.05 4.34,5.27L2.34,8.73C2.21,8.95 2.27,9.22 2.46,9.37L4.57,11C4.53,11.34 4.5,11.67 4.5,12C4.5,12.33 4.53,12.65 4.57,12.97L2.46,14.63C2.27,14.78 2.21,15.05 2.34,15.27L4.34,18.73C4.46,18.95 4.73,19.03 4.95,18.95L7.44,17.94C7.96,18.34 8.5,18.68 9.13,18.93L9.5,21.58C9.54,21.82 9.75,22 10,22H14C14.25,22 14.46,21.82 14.5,21.58L14.87,18.93C15.5,18.67 16.04,18.34 16.56,17.94L19.05,18.95C19.27,19.03 19.54,18.95 19.66,18.73L21.66,15.27C21.78,15.05 21.73,14.78 21.54,14.63L19.43,12.97Z" />
    </symbol>
    <symbol id="ic_swap_horizontal" viewBox="2 2 20 20">
        <path d="M21,9L17,5V8H10V10H17V13M7,11L3,15L7,19V16H14V14H7V11Z" />
    </symbol>
    <symbol id="ic_plus" viewBox="19 22 59 59">
        <polygon points="80.2,51.6 51.4,51.6 51.4,22.6 48.9,22.6 48.9,51.6 19.9,51.6 19.9,54.1 48.9,54.1 48.9,83.1 51.4,83.1 51.4,54.1 80.4,54.1 80.4,51.6 "/>
    </symbol>
    <symbol id="ic_arrow_drop_down" viewBox="0 0 24 24">
        <path d="M7 10l5 5 5-5z"/>
        <path d="M0 0h24v24H0z" fill="none"/>
    </symbol>
    <symbol id="ic_email" viewBox="0 0 24 24" style="enable-background:new 0 0 24 24;" xml:space="preserve">
        <path d="M0 0h24v24H0z" fill="none"/>
        <path d="M20 4H4c-1.1 0-1.99.9-1.99 2L2 18c0 1.1.9 2 2 2h16c1.1 0 2-.9 2-2V6c0-1.1-.9-2-2-2zm0 14H4V8l8 5 8-5v10zm-8-7L4 6h16l-8 5z"/>
    </symbol>
    <symbol id="ic_lock" viewBox="0 0 24 24">
        <path clip-path="url(#b)" d="M12 17c1.1 0 2-.9 2-2s-.9-2-2-2-2 .9-2 2 .9 2 2 2zm6-9h-1V6c0-2.76-2.24-5-5-5S7 3.24 7 6v2H6c-1.1 0-2 .9-2 2v10c0 1.1.9 2 2 2h12c1.1 0 2-.9 2-2V10c0-1.1-.9-2-2-2zM8.9 6c0-1.71 1.39-3.1 3.1-3.1s3.1 1.39 3.1 3.1v2H8.9V6zM18 20H6V10h12v10z"/>
    </symbol>
    <symbol id="ic_resend" viewBox="0 0 24 24">
         <path d="M12,5V1L7,6L12,11V7A6,6 0 0,1 18,13A6,6 0 0,1 12,19A6,6 0 0,1 6,13H4A8,8 0 0,0 12,21A8,8 0 0,0 20,13A8,8 0 0,0 12,5Z" />
    </symbol>
    <symbol id="cust_arrow_left" viewBox="6 0 12 24">
        <polygon points="17.9,0 17.9,24 6.1,12.3 "/>
    </symbol>
    <symbol id="cust_arrow_right" viewBox="6 0 12 24">
        <polygon points="6.1,0 6.1,24 17.9,12.3 "/>
    </symbol>
    <symbol id="cust_view" viewBox="0 0 24 24">
		<path d="M13.7,11.9c0-1-0.8-1.8-1.8-1.8c-1,0-1.8,0.8-1.8,1.8s0.8,1.8,1.8,1.8C12.9,13.7,13.7,12.9,13.7,11.9z"/>
		<path d="M12,4.3c-6.6,0-12,7.5-12,7.5s5.4,7.9,12,7.9c6.6,0,12-7.9,12-7.9S18.6,4.3,12,4.3z M7.6,12 c0-2.4,2-4.4,4.4-4.4c2.4,0,4.4,2,4.4,4.4c0,2.4-2,4.4-4.4,4.4C9.6,16.3,7.6,14.4,7.6,12z"/>
    </symbol>
    <symbol id="ic_info" viewBox="0 0 12 12">
        <g>
           <circle cx="6" cy="6" r="6"/>
        </g>
        <g>
           <rect x="5" y="2" fill="#FFFFFF" width="2" height="2"/>
           <rect x="5" y="5" fill="#FFFFFF" width="2" height="5"/>
        </g>
    </symbol>
    <symbol id="ic_done" viewBox="0 0 612 612">
        <path d="M606.453,101.171c-7.422-7.384-19.436-7.384-26.856,0L209.688,470.353L32.71,293.719c-7.499-7.46-19.626-7.46-27.086,0 c-7.499,7.46-7.499,19.588,0,27.048L195.341,510.14c0.115,0.115,0.306,0.153,0.421,0.269c0.115,0.114,0.153,0.268,0.229,0.382 c7.422,7.422,19.435,7.422,26.856,0l383.605-382.84C613.836,120.566,613.836,108.554,606.453,101.171z"/>
    </symbol>
    <symbol id="cust_unsubscribe" viewBox="0 1 24 24">
		<circle cx="15.3" cy="7.6" r="4.6"/>
		<rect x="0.1" y="9.7" width="7.9" height="2.6"/>
		<path d="M15.3,14.5c-5.9,0-8.6,6.5-8.6,6.5h17.2C23.9,21,21.2,14.5,15.3,14.5z"/>
    </symbol>
    <symbol id="cust_arrow_empty_left" viewBox="0 0 24 24">
        <polygon points="19.7,3.7 16.1,0.1 4.3,12 4.3,12 4.3,12 16.1,23.9 19.7,20.3 11.5,12 "/>
    </symbol>
    <symbol id="cust_arrow_empty_right" viewBox="0 0 24 24">
        <polygon points="4.3,3.7 7.9,0.1 19.7,12 19.7,12 19.7,12 7.9,23.9 4.3,20.3 12.5,12 "/>
    </symbol>
    <symbol id="ic_done" viewBox="0 2 24 24">
        <path d="M0 0h24v24H0z" fill="none"/>
        <path d="M9 16.2L4.8 12l-1.4 1.4L9 19 21 7l-1.4-1.4L9 16.2z"/>
    </symbol>
    <symbol id="ic_power" viewBox="2 2 20 20">
        <path d="M16.56,5.44L15.11,6.89C16.84,7.94 18,9.83 18,12A6,6 0 0,1 12,18A6,6 0 0,1 6,12C6,9.83 7.16,7.94 8.88,6.88L7.44,5.44C5.36,6.88 4,9.28 4,12A8,8 0 0,0 12,20A8,8 0 0,0 20,12C20,9.28 18.64,6.88 16.56,5.44M13,3H11V13H13" />
    </symbol>
    <symbol id="cust_facebook" viewBox="0 0 16 16">
        <g>
        	<path fill="#3B5998" d="M15,16H1c-0.5,0-1-0.4-1-1V1c0-0.5,0.4-1,1-1H15c0.5,0,1,0.4,1,1V15C16,15.6,15.6,16,15,16z"/>
        </g>
        <g>
        	<g>
        		<path fill-rule="evenodd" clip-rule="evenodd" fill="#FFFFFF" d="M10.6,16l0-6.4h2.2l0.3-2.2h-2.5V6.3c0-0.6,0.2-1.1,1-1.1h1.6V3
        			h-2.3c-2,0-2.5,1.3-2.5,3.1v1.3H7.1v2.2h1.3l0,6.4H10.6z M10.6,16.2"/>
        	</g>
        </g>
    </symbol>
    <symbol id="cust_twitter" viewBox="0 0 16 16">
        <g>
        	<path fill="#55ACEE" d="M15,16H1c-0.5,0-1-0.4-1-1V1c0-0.5,0.4-1,1-1H15c0.5,0,1,0.4,1,1V15C16,15.6,15.6,16,15,16z"/>
        </g>
        <g>
        	<g>
        		<path fill="#FFFFFF" d="M13.4,4.8C13,5,12.5,5.1,12.1,5.2c0.5-0.3,0.8-0.7,1-1.2c-0.4,0.3-0.9,0.4-1.4,0.5c-0.4-0.4-1-0.7-1.6-0.7
        			c-1.2,0-2.2,1-2.2,2.2c0,0.2,0,0.3,0.1,0.5c-1.8-0.1-3.4-1-4.5-2.3C3.3,4.5,3.2,4.9,3.2,5.3c0,0.8,0.4,1.4,1,1.8
        			c-0.4,0-0.7-0.1-1-0.3v0c0,1.1,0.8,1.9,1.8,2.1c-0.2,0-0.4,0.1-0.6,0.1c-0.1,0-0.3,0-0.4,0c0.3,0.9,1.1,1.5,2,1.5
        			c-0.7,0.6-1.7,0.9-2.7,0.9c-0.2,0-0.3,0-0.5,0c1,0.6,2.1,1,3.4,1c4,0,6.2-3.3,6.2-6.2l0-0.3C12.7,5.7,13.1,5.3,13.4,4.8L13.4,4.8z
        			 M13.4,4.8"/>
        	</g>
        </g>
    </symbol>
    <symbol id="cust_smile" viewBox="0 0 17 17">
        <g>
        	<path d="M8.5,0.1c-4.7,0-8.4,3.8-8.4,8.4c0,4.7,3.8,8.4,8.4,8.4c4.7,0,8.4-3.8,8.4-8.4C16.9,3.8,13.2,0.1,8.5,0.1z
        		 M8.5,16.3c-4.3,0-7.8-3.5-7.8-7.8c0-4.3,3.5-7.8,7.8-7.8c4.3,0,7.8,3.5,7.8,7.8C16.3,12.8,12.8,16.3,8.5,16.3z"/>
        	<circle cx="6.1" cy="6.8" r="0.9"/>
        	<circle cx="11" cy="6.8" r="0.9"/>
        	<path d="M8.6,13.2c-3.7,0-4.6-3.3-4.6-3.4L3.4,9.9c0,0,1.1,3.9,5.2,3.9c4.1,0,5.2-3.9,5.2-3.9l-0.6-0.2
        		C13.2,9.9,12.3,13.2,8.6,13.2z"/>
        </g>
    </symbol>
    <symbol id="cust_calendar" viewBox="0 87.9 419.5 419.6">
		<path d="M384.6,127.2h-56.8V101c0-7.3-5.9-13.1-13.1-13.1s-13.1,5.9-13.1,13.1v26.2h-78.7V101
			c0-7.3-5.9-13.1-13.1-13.1c-7.2,0-13.1,5.9-13.1,13.1v26.2H118V101c0-7.3-5.9-13.1-13.1-13.1c-7.2,0-13.1,5.8-13.1,13.1v26.2H35
			c-19.3,0-35,15.6-35,35v310.3c0,19.3,15.7,35,35,35h349.6c19.3,0,35-15.7,35-35V162.2C419.5,142.8,403.9,127.2,384.6,127.2z
			 M393.3,472.4c0,4.8-3.9,8.7-8.7,8.7H35c-4.8,0-8.7-3.9-8.7-8.7V162.2c0-4.8,3.9-8.7,8.7-8.7h56.8v26.2c0,7.3,5.9,13.1,13.1,13.1
			c7.2,0,13.1-5.9,13.1-13.1v-26.2h78.7v26.2c0,7.3,5.9,13.1,13.1,13.1c7.2,0,13.1-5.9,13.1-13.1v-26.2h78.7v26.2
			c0,7.3,5.9,13.1,13.1,13.1s13.1-5.9,13.1-13.1v-26.2h56.8c4.8,0,8.7,3.9,8.7,8.7L393.3,472.4L393.3,472.4z"/>
		<rect x="91.8" y="245.2" width="52.4" height="39.3"/>
		<rect x="91.8" y="310.8" width="52.4" height="39.3"/>
		<rect x="91.8" y="376.3" width="52.4" height="39.3"/>
		<rect x="183.5" y="376.3" width="52.4" height="39.3"/>
		<rect x="183.5" y="310.8" width="52.4" height="39.3"/>
		<rect x="183.5" y="245.2" width="52.4" height="39.3"/>
		<rect x="275.3" y="376.3" width="52.4" height="39.3"/>
		<rect x="275.3" y="310.8" width="52.4" height="39.3"/>
		<rect x="275.3" y="245.2" width="52.4" height="39.3"/>
    </symbol>
    <symbol id="cust_category" viewBox="0 0 14.5 15">
		<path d="M10,6C9.5,6,9,6.1,8.5,6.3V5h-4v1h-2V4H4V0H0v4h1.5v7.9h1h2v2.1h2.8C8.1,14.6,9,15,10,15
			c2.5,0,4.5-2,4.5-4.5S12.5,6,10,6z M2.5,11V7h2v2h1.3c-0.1,0.3-0.2,0.7-0.2,1.1h-1V11H2.5z M10,14.1c-2,0-3.6-1.6-3.6-3.6
			S8,6.9,10,6.9s3.6,1.6,3.6,3.6S12,14.1,10,14.1z"/>
		<polygon points="10.5,8.2 9.6,8.2 9.6,10 7.8,10 7.8,11 9.6,11 9.6,12.8 10.5,12.8 10.5,11 12.3,11 12.3,10
			10.5,10"/>
    </symbol>
    <symbol id="cust_move" viewBox="0 80 419.5 419.5">
		<path d="M414.3,287.2L354,226.8c-2.6-2.6-5.2-5.2-10.5-5.2c-5.2,0-7.9,2.6-10.5,5.2c-2.6,2.6-5.2,5.2-5.2,10.5v28.8
			h-89.2V177h28.8c5.2,0,7.9-2.6,10.5-5.2c2.6-2.6,5.2-5.2,5.2-10.5s-2.6-7.9-5.2-10.5l-57.7-57.7c-2.6-2.6-5.2-5.2-10.5-5.2
			s-7.9,2.6-10.5,5.2L139,153.4c-2.6,2.6-5.2,5.2-5.2,10.5s2.6,7.9,5.2,10.5c2.6,2.6,5.2,5.2,10.5,5.2h28.8v89.2H89.2v-31.5
			c0-5.2-2.6-7.9-5.2-10.5c-2.6-2.6-5.2-5.2-7.9-5.2c-5.2,0-7.9,2.6-10.5,5.2L5.2,287.2c-2.6,2.6-5.2,5.2-5.2,10.5s2.6,7.9,5.2,10.5
			l60.3,60.3c2.6,2.6,5.2,5.2,10.5,5.2c5.2,0,7.9-2.6,10.5-5.2c2.6-2.6,5.2-5.2,5.2-10.5v-31.5h89.2v89.2h-31.5
			c-5.2,0-7.9,2.6-10.5,5.2c-2.6,2.6-5.2,5.2-5.2,10.5c0,5.2,2.6,7.9,5.2,10.5l60.3,60.3c2.6,2.6,5.2,5.2,10.5,5.2s7.9-2.6,10.5-5.2
			l60.3-60.3c2.6-2.6,5.2-5.2,5.2-10.5c0-5.2-2.6-7.9-5.2-10.5c-2.6-2.6-5.2-5.2-10.5-5.2h-31.5v-89.2h89.2v28.8
			c0,5.2,2.6,7.9,5.2,10.5c2.6,2.6,5.2,5.2,10.5,5.2s7.9-2.6,10.5-5.2l60.1-58.4c3.7-4.1,5.4-4.5,5.4-9.8S416.9,289.8,414.3,287.2
			L414.3,287.2z"/>
    </symbol>
    <symbol id="cust_api_keys" viewBox="0 0 24 24">
        <path d="M0 0h24v24H0z" fill="none"/>
        <path d="M12.65 10C11.83 7.67 9.61 6 7 6c-3.31 0-6 2.69-6 6s2.69 6 6 6c2.61 0 4.83-1.67 5.65-4H17v4h4v-4h2v-4H12.65zM7 14c-1.1 0-2-.9-2-2s.9-2 2-2 2 .9 2 2-.9 2-2 2z"/>
    </symbol>
    <symbol id="cust_billing_details" viewBox="0 0 32.8 40.8">
        <path class="st0" d="M-7.7-3.6h48v48h-48V-3.6z" style="fill: none;"/>
        <path class="st1" d="M20.3,0.4h-16c-2.2,0-4,1.8-4,4l0,32c0,2.2,1.8,4,4,4h24c2.2,0,4-1.8,4-4v-24L20.3,0.4z M24.3,32.4h-16v-4h16
        	V32.4z M24.3,24.4h-16v-4h16V24.4z M18.3,14.4v-11l11,11H18.3z"/>
    </symbol>
    <symbol id="cust_email_auth" viewBox="0 0 24 24">
        <path d="M20 4H4c-1.1 0-1.99.9-1.99 2L2 18c0 1.1.9 2 2 2h16c1.1 0 2-.9 2-2V6c0-1.1-.9-2-2-2zm0 4l-8 5-8-5V6l8 5 8-5v2z"/>
        <path d="M0 0h24v24H0z" fill="none"/>
    </symbol>
    <symbol id="cust_integrations" viewBox="0 0 24 24">
        <path d="M0 0h24v24H0z" fill="none"/>
        <path d="M19.43 12.98c.04-.32.07-.64.07-.98s-.03-.66-.07-.98l2.11-1.65c.19-.15.24-.42.12-.64l-2-3.46c-.12-.22-.39-.3-.61-.22l-2.49 1c-.52-.4-1.08-.73-1.69-.98l-.38-2.65C14.46 2.18 14.25 2 14 2h-4c-.25 0-.46.18-.49.42l-.38 2.65c-.61.25-1.17.59-1.69.98l-2.49-1c-.23-.09-.49 0-.61.22l-2 3.46c-.13.22-.07.49.12.64l2.11 1.65c-.04.32-.07.65-.07.98s.03.66.07.98l-2.11 1.65c-.19.15-.24.42-.12.64l2 3.46c.12.22.39.3.61.22l2.49-1c.52.4 1.08.73 1.69.98l.38 2.65c.03.24.24.42.49.42h4c.25 0 .46-.18.49-.42l.38-2.65c.61-.25 1.17-.59 1.69-.98l2.49 1c.23.09.49 0 .61-.22l2-3.46c.12-.22.07-.49-.12-.64l-2.11-1.65zM12 15.5c-1.93 0-3.5-1.57-3.5-3.5s1.57-3.5 3.5-3.5 3.5 1.57 3.5 3.5-1.57 3.5-3.5 3.5z"/>
    </symbol>
    <symbol id="cust_invoices" viewBox="0 0 33 41">
        <path class="st0" d="M4.5,0.5c-2.2,0-4,1.8-4,4l0,32c0,2.2,1.8,4,4,4h24c2.2,0,4-1.8,4-4v-24l-12-12H4.5z M18.5,14.5v-11l11,11H18.5
        	z"/>
        <path class="st1" d="M-7.5-3.5h48v48h-48V-3.5z" style="fill: none;"/>
    </symbol>
    <symbol id="cust_login_history" viewBox="0 0 40.8 40.9">
        <path d="M20.4,0.4c-11,0-20,9-20,20s8.9,20,20,20c11.1,0,20-9,20-20S31.5,0.4,20.4,0.4z M20.4,36.4c-8.8,0-16-7.2-16-16
        	s7.2-16,16-16s16,7.2,16,16S29.3,36.4,20.4,36.4z"/>
        <path d="M-3.6-3.6h48v48h-48V-3.6z" style="fill:none"/>
        <path d="M21.4,10.4h-3v12l10.5,6.3l1.5-2.5l-9-5.3V10.4z"/>
    </symbol>
    <symbol id="cust_logout" viewBox="0 0 37.2 37">
        <path class="st0" d="M-5.4-5.4h48v48h-48V-5.4z" style="fill:none"/>
        <path class="st1" d="M14.8,25.8l2.8,2.8l10-10l-10-10l-2.8,2.8l5.2,5.2H0.6v4h19.3L14.8,25.8z M32.6,0.6h-28c-2.2,0-4,1.8-4,4v8h4
        	v-8h28v28h-28v-8h-4v8c0,2.2,1.8,4,4,4h28c2.2,0,4-1.8,4-4v-28C36.6,2.4,34.8,0.6,32.6,0.6z"/>
    </symbol>
    <symbol id="cust_referral_program" viewBox="0 0 20.4 19.4">
        <path class="st0" d="M18.2,4.2H16c0.1-0.3,0.2-0.7,0.2-1c0-1.7-1.3-3-3-3c-1.1,0-2,0.5-2.5,1.3l-0.5,0.7L9.7,1.6
        	C9.2,0.8,8.3,0.2,7.2,0.2c-1.7,0-3,1.3-3,3c0,0.3,0.1,0.7,0.2,1H2.2c-1.1,0-2,0.9-2,2l0,11c0,1.1,0.9,2,2,2h16c1.1,0,2-0.9,2-2v-11
        	C20.2,5.1,19.3,4.2,18.2,4.2z M13.2,2.2c0.6,0,1,0.4,1,1s-0.4,1-1,1s-1-0.4-1-1S12.7,2.2,13.2,2.2z M7.2,2.2c0.6,0,1,0.4,1,1
        	s-0.4,1-1,1s-1-0.4-1-1S6.7,2.2,7.2,2.2z M18.2,17.2h-16v-2h16V17.2z M18.2,12.2h-16v-6h5.1L5.2,9l1.6,1.2L9.2,7l1-1.4l1,1.4
        	l2.4,3.2L15.2,9l-2.1-2.8h5.1V12.2z"/>
        <path class="st1" d="M-1.8-1.8h24v24h-24V-1.8z" style="fill:none"/>
    </symbol>
    <symbol id="cust_sender_details" viewBox="0 0 24 24">
		<path d="M22.506,18.391c-0.43-1.43-1.71-2.176-1.71-2.176s-3.8-0.971-5.08-1.555
			c-0.392-0.179-0.678-0.504-0.888-0.871c1.85-1.283,3.113-3.859,3.113-7.158c0-4.788-2.655-6.082-5.932-6.082
			c-3.277,0-5.938,1.293-5.938,6.082c0,3.288,1.252,5.854,3.093,7.14c-0.21,0.375-0.499,0.708-0.898,0.888
			c-1.281,0.584-5.08,1.555-5.08,1.555s-1.281,0.746-1.71,2.176c-0.398,1.331-1.219,2.481-1.443,2.78
			c1.541,1.519,6.771,2.279,11.993,2.279c5.206,0,10.404-0.755,11.941-2.267C23.756,20.915,22.91,19.746,22.506,18.391z
			 M1.302,20.945c0.358-0.579,0.792-1.394,1.06-2.288c0.257-0.857,0.956-1.411,1.202-1.584c0.733-0.19,3.879-1.021,5.082-1.569
			c0.54-0.244,0.986-0.674,1.325-1.279l0.41-0.731l-0.687-0.48c-1.689-1.181-2.697-3.567-2.697-6.382
			c0-3.614,1.499-5.156,5.013-5.156c3.509,0,5.007,1.542,5.007,5.156c0,2.827-1.015,5.219-2.715,6.397l-0.697,0.483l0.421,0.736
			c0.337,0.59,0.777,1.012,1.307,1.254c1.205,0.55,4.35,1.38,5.085,1.571c0.251,0.176,0.946,0.729,1.203,1.582
			c0.272,0.916,0.715,1.737,1.07,2.305c-1.778,0.941-5.915,1.565-10.664,1.565C7.245,22.525,3.082,21.894,1.302,20.945z"/>
    </symbol>
    <symbol id="cust_subscription_plan"	 viewBox="0 0 36.9 36.8">
        <path d="M24.4,31.4c-5,0-9.4-2.8-11.5-7h11.5v-4H11.5c-0.1-0.7-0.2-1.3-0.2-2s0.1-1.3,0.2-2h12.8v-4H12.9
        	c2.2-4.2,6.5-7,11.5-7c3.2,0,6.2,1.2,8.5,3.1L36.4,5c-3.2-2.9-7.4-4.6-12-4.6c-7.8,0-14.5,5-17,12h-7v4h6.1c-0.1,0.7-0.1,1.3-0.1,2
        	s0,1.3,0.1,2H0.4v4h7c2.5,7,9.1,12,17,12c4.6,0,8.8-1.7,12-4.6l-3.6-3.5C30.6,30.2,27.6,31.4,24.4,31.4z"/>
        <path d="M-5.6-5.6h48v48h-48V-5.6z" style="fill:none;"/>
    </symbol>
    <symbol id="cust_user_management" viewBox="0 0 24 24">
        <path d="M0 0h24v24H0z" fill="none"/>
        <path d="M16 11c1.66 0 2.99-1.34 2.99-3S17.66 5 16 5c-1.66 0-3 1.34-3 3s1.34 3 3 3zm-8 0c1.66 0 2.99-1.34 2.99-3S9.66 5 8 5C6.34 5 5 6.34 5 8s1.34 3 3 3zm0 2c-2.33 0-7 1.17-7 3.5V19h14v-2.5c0-2.33-4.67-3.5-7-3.5zm8 0c-.29 0-.62.02-.97.05 1.16.84 1.97 1.97 1.97 3.45V19h6v-2.5c0-2.33-4.67-3.5-7-3.5z"/>
    </symbol>
    <symbol id="cust_webhooks" viewBox="0 0 24 24">
        <path d="M23.132,13.472c-1.043-1.883-3.029-3.053-5.184-3.053c-0.571,0-1.133,0.081-1.675,0.242L15.226,8.77
        	l1.564,0.895l0.456-0.797c0.787-1.373,0.991-2.97,0.576-4.498c-0.415-1.526-1.401-2.8-2.773-3.586C14.153,0.27,13.138,0,12.111,0
        	C9.989,0,8.018,1.142,6.966,2.982c-1.388,2.423-0.878,5.476,1.155,7.321l-1.277,2.231v-2.113h-0.92C2.658,10.421,0,13.079,0,16.345
        	c0,3.265,2.658,5.922,5.924,5.922c2.792,0,5.188-1.96,5.781-4.639h2.023l-1.407,0.779l0.445,0.805
        	c1.043,1.884,3.03,3.055,5.186,3.055c0.998,0,1.99-0.256,2.866-0.742C23.677,19.945,24.714,16.333,23.132,13.472z M16.466,17.627
        	c0.363,0.526,0.961,0.848,1.62,0.848c1.087,0,1.971-0.884,1.971-1.971s-0.884-1.972-1.971-1.972c-0.668,0-1.286,0.346-1.646,0.892
        	l-6.796,0.001v0.919c0,2.051-1.669,3.719-3.72,3.719s-3.72-1.668-3.72-3.719c0-2.052,1.669-3.721,3.72-3.721h0.868l-1.038,1.813
        	c-0.641,0.057-1.219,0.424-1.538,0.983c-0.262,0.456-0.329,0.988-0.192,1.497c0.139,0.508,0.466,0.931,0.922,1.192
        	c0.298,0.171,0.636,0.261,0.978,0.261c0.706,0,1.362-0.381,1.711-0.991c0.335-0.584,0.342-1.292,0.047-1.874l2.907-5.08l0.485-0.805
        	l-0.817-0.467C8.478,8.134,7.859,5.857,8.878,4.076c0.662-1.154,1.902-1.871,3.237-1.871c0.643,0,1.28,0.17,1.84,0.49
        	c1.779,1.02,2.399,3.298,1.38,5.079L14.999,8.36l-1.031-1.863c0.284-0.571,0.275-1.251-0.043-1.828
        	c-0.493-0.89-1.786-1.268-2.679-0.77c-0.461,0.255-0.794,0.674-0.94,1.182c-0.145,0.508-0.084,1.039,0.17,1.498
        	c0.317,0.573,0.925,0.959,1.578,1.01l2.863,5.166l0.456,0.763l0.777-0.431c0.55-0.304,1.17-0.465,1.792-0.465
        	c1.358,0,2.608,0.735,3.262,1.918c0.48,0.869,0.594,1.874,0.318,2.829c-0.274,0.957-0.903,1.747-1.771,2.227
        	c-0.548,0.304-1.169,0.465-1.795,0.465c-1.358,0-2.608-0.735-3.262-1.918l-0.286-0.516H16.466z"/>
    </symbol>
    <symbol id="automation_01" x="0px" y="0px" viewBox="0 0 62.417 50.083">
        <circle fill="none" stroke="#36344B" stroke-width="3" stroke-miterlimit="10" cx="27.615" cy="15.517" r="13.598"/>
        <path fill="#009FFF" d="M54.749,25.599h-0.696c-0.552,0-1-0.448-1-1V11.36c0-0.552,0.448-1,1-1h0.696c0.552,0,1,0.448,1,1v13.239 C55.749,25.151,55.302,25.599,54.749,25.599z"/>
        <path fill="#009FFF" d="M62.021,17.631v0.696c0,0.552-0.448,1-1,1H47.782c-0.552,0-1-0.448-1-1v-0.696c0-0.552,0.448-1,1-1h13.239 C61.573,16.631,62.021,17.079,62.021,17.631z"/>
        <path fill="none" stroke="#36344B" stroke-width="3" stroke-linecap="round" stroke-miterlimit="10" d="M1.708,48.106 c5.963-18.1,27.063-23.898,40.798-14.148"/>
        <g>
            <g>
                <path fill="none" stroke="#36344B" stroke-width="3" stroke-linecap="round" stroke-miterlimit="10" d="M45.786,36.35 c0.025,0.022,0.05,0.044,0.075,0.067"/>
                <path fill="none" stroke="#36344B" stroke-width="3" stroke-linecap="round" stroke-miterlimit="10" stroke-dasharray="0.1802,4.5048" d="M48.853,39.776c1.367,1.912,2.405,3.983,3.465,6.206"/>
                <path fill="none" stroke="#36344B" stroke-width="3" stroke-linecap="round" stroke-miterlimit="10" d="M53.285,48.016 c0.014,0.03,0.029,0.06,0.043,0.09"/>
            </g>
        </g>
    </symbol>
    <symbol id="automation_02" x="0px" y="0px" viewBox="8 15 184.5 87.5">
        <g>
            <path fill="#04A1FF" d="M40.3,39.6H28.5v-5.9h30.6v5.9H47.4v39.3h11.8v5.9H28.5v-5.9h11.8V39.6z"/>
        </g>
        <rect x="10.8" y="18.4" fill="none" stroke="#36344B" stroke-width="3" stroke-miterlimit="10" width="178.5" height="81.7"/>
        <path fill="none" stroke="#36344B" stroke-width="5" stroke-miterlimit="10" d="M182.7,98.5H16.9c-2.8,0-5-2.3-5-5V25.1 c0-2.8,2.3-5,5-5h165.8c2.8,0,5,2.3,5,5v68.5C187.7,96.3,185.5,98.5,182.7,98.5z"/>
    </symbol>
    <symbol id="automation_03" x="0px" y="0px" viewBox="0 0 74.833 54">
        <g>
            <path fill="#36344B" d="M61.667,6.667h-7.5c0,1.438,0.004,0.506,0,2.025l7.5-0.025c1.103,0,2,0.897,2,2v34.667c0,1.103-0.897,2-2,2 h-49c-1.103,0-2-0.897-2-2V10.667c0-1.103,0.897-2,2-2h7.167c0-1.583,0.011-0.625,0-2h-7.167c-2.206,0-4,1.794-4,4v34.667 c0,2.206,1.794,4,4,4h49c2.206,0,4-1.794,4-4V10.667C65.667,8.461,63.873,6.667,61.667,6.667z"/>
            <rect x="24.147" y="6.653" fill="#36344B" width="10.626" height="2.039"/>
            <rect x="39.082" y="6.653" fill="#36344B" width="10.761" height="2.039"/>
        </g>
        <circle fill="#36344B" cx="22" cy="12.5" r="2.333"/>
        <circle fill="#36344B" cx="37" cy="12.5" r="2.333"/>
        <circle fill="#36344B" cx="52" cy="12.5" r="2.333"/>
        <rect x="21.145" y="4" fill="#36344B" width="1.71" height="7.256"/>
        <circle fill="#04A1FF" cx="24.314" cy="25.068" r="1.734"/>
        <circle fill="#04A1FF" cx="30.932" cy="25.068" r="1.734"/>
        <circle fill="#04A1FF" cx="36.961" cy="25.068" r="1.734"/>
        <circle fill="#04A1FF" cx="42.932" cy="25.068" r="1.734"/>
        <circle fill="#04A1FF" cx="48.609" cy="25.068" r="1.734"/>
        <circle fill="#04A1FF" cx="54.932" cy="25.068" r="1.734"/>
        <circle fill="#04A1FF" cx="24.314" cy="30.568" r="1.734"/>
        <circle fill="#04A1FF" cx="30.932" cy="30.568" r="1.734"/>
        <circle fill="#04A1FF" cx="36.961" cy="30.568" r="1.734"/>
        <circle fill="#04A1FF" cx="42.932" cy="30.568" r="1.734"/>
        <circle fill="#04A1FF" cx="48.609" cy="30.568" r="1.734"/>
        <circle fill="#04A1FF" cx="54.932" cy="30.568" r="1.734"/>
        <circle fill="#04A1FF" cx="18.314" cy="30.568" r="1.734"/>
        <circle fill="#04A1FF" cx="24.314" cy="36.068" r="1.734"/>
        <circle fill="#04A1FF" cx="30.932" cy="36.068" r="1.734"/>
        <circle fill="#04A1FF" cx="36.961" cy="36.068" r="1.734"/>
        <circle fill="#04A1FF" cx="42.932" cy="36.068" r="1.734"/>
        <circle fill="#04A1FF" cx="48.609" cy="36.068" r="1.734"/>
        <circle fill="#04A1FF" cx="54.932" cy="36.068" r="1.734"/>
        <circle fill="#04A1FF" cx="18.314" cy="36.068" r="1.734"/>
        <circle fill="#04A1FF" cx="24.314" cy="41.068" r="1.734"/>
        <circle fill="#04A1FF" cx="30.932" cy="41.068" r="1.734"/>
        <circle fill="#04A1FF" cx="36.961" cy="41.068" r="1.734"/>
        <circle fill="#04A1FF" cx="18.314" cy="41.068" r="1.734"/>
        <rect x="9.917" y="17.167" fill="#36344B" width="55" height="1.599"/>
        <rect x="36.062" y="4" fill="#36344B" width="1.71" height="7.345"/>
        <rect x="51.145" y="4" fill="#36344B" width="1.71" height="7.345"/>
    </symbol>
    <symbol id="automation_04" x="0px" y="0px" viewBox="0 0 200 200">
        <path fill="none" stroke="#36344B" stroke-width="2" stroke-miterlimit="10" d="M392.6,252.4"/>
        <g>
            <path fill="#36344B" d="M174.6,78.2c0.6,1.3,0.6,2.6,0.6,2.6c4.2,0,6.7,8.3,6.7,12.5v89.2c0,4.2-3.4,7.6-7.6,7.6H25.7 c-4.2,0-7.6-3.4-7.6-7.6V93.3l-0.1-0.6c-0.4-2.6-0.1-4.9,1-6.1c0.2-0.2,0.6-0.6,1.4-0.9c-1.2-2.1-0.8-5.1,1.2-6.5 c0.7-0.6,1.7-1,2.9-1c0.3,0,0.5,0,0.8,0.1c0,0,0,0,0-0.1c-1.1-0.2-2.2-0.3-3.1-0.3c-4.8,0-7.5,2.1-9,3.9c-2.5,2.9-3.4,7.1-2.7,11.9 v88.9c0,8.3,6.8,15.1,15.1,15.1h148.6c8.3,0,15.1-6.8,15.1-15.1V93.3C189.4,85.1,182.8,78.4,174.6,78.2z"/>
        </g>
        <polyline fill="none" stroke="#36344B" stroke-width="7" stroke-miterlimit="10" points="16.6,83.6 83,144 17.6,190.4 "/>
        <g>
            <path fill="#36344B" d="M134.2,131l48.4-44.5l-5.1-5.6l-49.8,45.8C130.2,127.4,132.3,128.7,134.2,131z"/>
            <path fill="#36344B" d="M135,150c-3.5-2.4-2.5,1.8-2.8,1.9c-2.2,1.5,0.3,3.2-2.3,3.7l50,40.9l4.8-5.8L135,150z"/>
        </g>
        <g>
            <polygon fill="#36344B" points="38.9,58.2 14.1,80.8 19.2,86.4 38.9,68.5 	"/>
            <path fill="#36344B" d="M134.1,34.5L100,2.5L65.7,33.7c2.8,1.1,5.6,1.9,8.6,2.4L100,12.8l22.4,21.1C126.3,34,130.2,34.2,134.1,34.5 z"/>
            <path fill="#36344B" d="M166.5,65.1c0.8,2.9,0.3,6-2,8.5L179.8,88l5.2-5.5L166.5,65.1z"/>
        </g>
        <g>
            <path fill="#36344B" d="M160.9,40.7v56.7c2.5-0.1,5-6.1,7.6-6.1V40.7c0-6.2-5.1-11.3-11.3-11.3H42.9c-6.2,0-11.3,5.1-11.3,11.3 v52.4c0.8-0.3,7.4,6.3,8.7,7.2l-1.1-59.7c0-2.1,1.7-3.8,3.8-3.8h114.2C159.2,37,160.9,38.7,160.9,40.7z"/>
        </g>
        <rect x="54.1" y="57.5" fill="#36344B" width="90.9" height="7.4"/>
        <rect x="54.1" y="99.5" fill="#36344B" width="90.9" height="7.4"/>
        <rect x="54.1" y="78.9" fill="#36344B" width="90.9" height="7.4"/>
        <rect x="54.1" y="99.5" fill="#36344B" width="90.9" height="7.4"/>
        <rect x="61.5" y="119.6" fill="#36344B" width="30" height="7.4"/>
        <rect x="80.8" y="140.1" fill="#36344B" width="10.7" height="7.4"/>
        <polygon fill="#36344B" points="135.8,127.1 131.3,127.1 121.4,119.6 138.1,119.6 "/>
        <line fill="none" x1="240.4" y1="79.7" x2="240.4" y2="72.3"/>
        <path fill="none" stroke="#E2CD52" stroke-linecap="round" stroke-linejoin="round" stroke-miterlimit="10" d="M312.4,188.4"/>
        <path fill="none" stroke="#E2CD52" stroke-linecap="round" stroke-linejoin="round" stroke-miterlimit="10" d="M173.4,270.1"/>
        <polygon fill="none" stroke="#04A1FF" stroke-width="7" stroke-linecap="round" stroke-linejoin="round" stroke-miterlimit="10" points="94.4,176.7 93.7,102.4 149.9,145.7 126.5,147.2 146,175.1 130.5,185.7 111.3,157.7 "/>
    </symbol>
    <symbol id="automation_05" x="0px" y="0px" viewBox="0 0 44.5 49.167">
        <path fill="none" stroke="#36344B" stroke-width="2" stroke-miterlimit="10" d="M32.25,37.167l-0.917-17.372 c0,0,0-5.385,6.042-5.385c5.875,0,5.948,5.387,5.948,5.387l-0.656,17.37H32.25z"/>
        <path fill="none" stroke="#36344B" stroke-width="2" stroke-miterlimit="10" d="M32.354,40.167h10.315c0,0,0.08,3.201-0.087,4.152 c-0.332,1.892-2.249,2.821-5.395,2.7c-1.539-0.059-4.25-0.236-4.542-2.732L32.354,40.167z"/>
        <path fill="none" stroke="#36344B" stroke-width="2" stroke-miterlimit="10" d="M14.077,40.922L3.014,27.498 c0,0-3.201-4.331,1.657-7.922c4.724-3.492,7.985,0.796,7.985,0.796l9.798,14.358L14.077,40.922z"/>
        <path fill="none" stroke="#36344B" stroke-width="2" stroke-miterlimit="10" d="M15.944,43.273l8.295-6.131 c0,0,1.967,2.527,2.398,3.391c0.858,1.719-0.132,3.605-2.733,5.378c-1.273,0.867-3.558,2.336-5.276,0.503L15.944,43.273z"/>
        <g>
            <g>
                <path fill="none" stroke="#009FFF" stroke-width="2" stroke-miterlimit="10" d="M8.167,15.542c0-0.906,0.127-1.917,0.388-2.967"/>
                <path fill="none" stroke="#009FFF" stroke-width="2" stroke-miterlimit="10" stroke-dasharray="4.759,3.9658" d="M9.993,8.892 c2.167-3.976,6.324-7.459,12.79-6.988"/>
                <path fill="none" stroke="#009FFF" stroke-width="2" stroke-miterlimit="10" d="M24.758,2.162 c0.927,0.172,1.896,0.421,2.908,0.755"/>
            </g>
        </g>
        <polygon fill="none" stroke="#36344B" stroke-width="2" stroke-miterlimit="10" points="28.115,9.176 36.936,3.873 35.07,11.042 "/>
    </symbol>
    <symbol  id="cust_delete" viewBox="0 0 24 24" xml:space="preserve">
		<circle fill="#F6493E" cx="11.941" cy="11.8229" r="11.5313"/>
		<line fill="none" stroke="#FFFFFF" stroke-width="2" stroke-linecap="square" stroke-miterlimit="10" x1="8.0908" y1="7.5989" x2="16.3961" y2="15.9042"/>
		<line fill="none" stroke="#FFFFFF" stroke-width="2" stroke-linecap="square" stroke-miterlimit="10" x1="8.0908" y1="15.9042" x2="16.3961" y2="7.5989"/>
    </symbol>
    <symbol id="cust_edit" version="1.1" x="0px" y="0px" viewBox="0 0 24 24">
	  <circle fill="#00C891" cx="12.104" cy="11.854" r="11.813"/>
	  <line fill="none" stroke="#FFFFFF" stroke-width="2" stroke-linecap="square" stroke-linejoin="round" stroke-miterlimit="10" x1="12" y1="6" x2="12" y2="18"/>
	  <line fill="none" stroke="#FFFFFF" stroke-width="2" stroke-linecap="square" stroke-linejoin="round" stroke-miterlimit="10" x1="6" y1="12" x2="18" y2="12"/>
    </symbol>
    <symbol id="cust_dnd" x="0px" y="0px"  viewBox="0 0 63.984 32.5">
        <style type="text/css">
        	.st0{fill:#BFBDC4;}
        </style>
        <rect x="0" y="0" class="st0" width="63.984" height="7.109"/>
        <rect x="0" y="12.695" class="st0" width="63.984" height="7.109"/>
        <rect x="0" y="25.391" class="st0" width="63.984" height="7.109"/>
    </symbol>
    <symbol id="cust_brush" x="0px" y="0px"  viewBox="0 0 24 21.438">
		<path d="m13.637 13.661c-1.196-.13-2.175-1.108-2.744-1.979-.691-1.059-.395-2.344.557-3.132 3.381-2.794 6.821-5.519 10.314-8.171.361-.274 1.45-.097 1.796.261.341.353.457 1.423.172 1.8-2.583 3.421-5.242 6.787-7.969 10.09-.486.591-.94 1.256-2.126 1.127m8.947-12.1c-1.851 1.683-7.165 5.684-9.884 7.866-.795.638-.851 1.453-.078 2.186.797.755 1.565.514 2.189-.242 1.109-1.345 2.177-2.724 3.256-4.094 1.093-1.386 3.36-4.24 4.517-5.716"/>
		<path d="m.332 20.432c2.16-.964 3.551-3.546 3.903-4.635.382-1.182 1.635-3.297 3.225-3.651 1.571-.35 3.247.398 4.084 1.825.854 1.455.476 3.61-.816 4.71-1.208 1.029-2.317 1.593-3.83 2.044-2.026.604-4.183.55-6.566-.293m3.207-.564c1.954-.133 5.167-.858 6.419-2.657.33-.474 1.066-1.551.556-2.704-.367-.829-2.031-1.138-2.686-1.01-.733.144-1.592.636-2.039 1.925-.449 1.295-1.153 3.199-2.25 4.446"/>
    </symbol>
    <symbol id="cust_hamburger" x="0px" y="0px" viewBox="0 0 24 12.063">
		<path d="m0 0h24v3.063h-24z"/>
		<path d="m0 4.5h24v3.063h-24z"/>
		<path d="m0 9h24v3.063h-24z"/>
    </symbol>
    <symbol id="cust_search" viewBox="0 0 14.126 14.59">
		<path d="M6.063,12.125c1.362,0,2.615-0.448,3.63-1.207l3.508,3.508c0.11,0.11,0.247,0.165,0.384,0.165
				c0.137,0,0.284-0.055,0.384-0.165c0.21-0.21,0.21-0.558,0-0.777l-3.462-3.471c0.997-1.079,1.618-2.524,1.618-4.115
				C12.125,2.725,9.409,0,6.063,0C2.716,0,0,2.725,0,6.063C0,9.4,2.716,12.125,6.063,12.125L6.063,12.125z M6.063,1.097
				c2.734,0,4.965,2.222,4.965,4.965s-2.222,4.965-4.965,4.965c-2.734,0-4.965-2.222-4.965-4.965S3.319,1.097,6.063,1.097
				L6.063,1.097z M6.063,1.097"/>
		<path  d="M3.831,6.593h1.737V8.33c0,0.302,0.247,0.549,0.549,0.549c0.302,0,0.549-0.247,0.549-0.549V6.593h1.737
			c0.302,0,0.549-0.247,0.549-0.549c0-0.302-0.247-0.549-0.549-0.549H6.666V3.758c0-0.302-0.247-0.549-0.549-0.549
			c-0.302,0-0.549,0.247-0.549,0.549v1.737H3.831c-0.302,0-0.549,0.247-0.549,0.549C3.283,6.346,3.53,6.593,3.831,6.593L3.831,6.593
			z M3.831,6.593"/>
    </symbol>
    <symbol id="cust_pdf" viewBox="0 0 23 13">
        <path d="M20.203,13H2.797C1.259,13,0,11.741,0,10.203V2.797C0,1.259,1.259,0,2.797,0h17.406
        	C21.741,0,23,1.259,23,2.797v7.406C23,11.741,21.741,13,20.203,13z"/>
        <g>
        	<path fill="#FFFFFF" d="M4.271,7.301v2.637H3.035V2.828h2.72c0.794,0,1.425,0.207,1.892,0.621C8.114,3.863,8.348,4.41,8.348,5.091
        		c0,0.697-0.229,1.24-0.686,1.628C7.204,7.107,6.564,7.301,5.74,7.301H4.271z M4.271,6.305h1.484c0.439,0,0.775-0.104,1.006-0.31
        		s0.347-0.505,0.347-0.896c0-0.384-0.117-0.691-0.352-0.92S6.199,3.831,5.789,3.824H4.271V6.305z"/>
        	<path fill="#FFFFFF" d="M9.087,9.938V2.828h2.1c0.628,0,1.186,0.14,1.672,0.42s0.863,0.677,1.13,1.191s0.4,1.104,0.4,1.768v0.356
        		c0,0.674-0.134,1.267-0.403,1.777s-0.651,0.905-1.147,1.182s-1.065,0.415-1.707,0.415H9.087z M10.322,3.824v5.117h0.806
        		c0.648,0,1.145-0.202,1.492-0.607c0.347-0.404,0.523-0.984,0.53-1.742V6.198c0-0.77-0.167-1.358-0.503-1.764
        		s-0.822-0.609-1.46-0.609H10.322z"/>
        	<path fill="#FFFFFF" d="M19.376,6.935h-2.861v3.003H15.28V2.828h4.517v0.996h-3.281v2.114h2.861V6.935z"/>
        </g>
    </symbol>
    <symbol id="cust_xls" viewBox="0 0 23 13">
        <path d="M20.203,13H2.797C1.259,13,0,11.741,0,10.203V2.797C0,1.259,1.259,0,2.797,0h17.406
        	C21.741,0,23,1.259,23,2.797v7.406C23,11.741,21.741,13,20.203,13z"/>
        <g>
        	<path fill="#FFFFFF" d="M6.169,5.396l1.494-2.568h1.426L6.94,6.354l2.197,3.584h-1.44L6.169,7.33L4.636,9.938H3.2l2.202-3.584
        		L3.249,2.828h1.426L6.169,5.396z"/>
        	<path fill="#FFFFFF" d="M10.946,8.941h3.228v0.996H9.711V2.828h1.235V8.941z"/>
        	<path fill="#FFFFFF" d="M18.496,8.106c0-0.313-0.109-0.554-0.329-0.723s-0.616-0.341-1.188-0.513
        		c-0.573-0.172-1.029-0.365-1.367-0.576c-0.648-0.407-0.973-0.938-0.973-1.592c0-0.573,0.234-1.045,0.701-1.416
        		s1.073-0.557,1.818-0.557c0.495,0,0.937,0.091,1.324,0.273c0.387,0.182,0.691,0.442,0.912,0.779
        		c0.222,0.337,0.332,0.71,0.332,1.121h-1.23c0-0.368-0.115-0.656-0.349-0.864c-0.233-0.208-0.565-0.313-0.999-0.313
        		c-0.403,0-0.717,0.086-0.939,0.258s-0.334,0.412-0.334,0.72c0,0.259,0.12,0.476,0.361,0.649c0.24,0.174,0.638,0.342,1.191,0.506
        		c0.553,0.164,0.997,0.351,1.332,0.561c0.336,0.21,0.582,0.451,0.738,0.723c0.156,0.271,0.234,0.59,0.234,0.954
        		c0,0.593-0.228,1.063-0.682,1.413c-0.454,0.351-1.07,0.525-1.848,0.525c-0.515,0-0.988-0.096-1.419-0.285
        		c-0.431-0.191-0.767-0.454-1.006-0.789c-0.239-0.336-0.358-0.727-0.358-1.172h1.234c0,0.404,0.134,0.717,0.4,0.938
        		c0.268,0.222,0.65,0.332,1.148,0.332c0.43,0,0.752-0.087,0.969-0.262C18.389,8.623,18.496,8.393,18.496,8.106z"/>
        </g>
    </symbol>
    <symbol id="cust_clock24" viewBox="0 0 24 24">
        <path d="M0 0h24v24H0z" fill="none"/>
        <path d="M13 3c-4.97 0-9 4.03-9 9H1l3.89 3.89.07.14L9 12H6c0-3.87 3.13-7 7-7s7 3.13 7 7-3.13 7-7 7c-1.93 0-3.68-.79-4.94-2.06l-1.42 1.42C8.27 19.99 10.51 21 13 21c4.97 0 9-4.03 9-9s-4.03-9-9-9zm-1 5v5l4.28 2.54.72-1.21-3.5-2.08V8H12z"/>
    </symbol>
    <symbol id="ic_campaingsPreview" viewBox="0 0 24 24">
        <path d="M9 11.75c-.69 0-1.25.56-1.25 1.25s.56 1.25 1.25 1.25 1.25-.56 1.25-1.25-.56-1.25-1.25-1.25zm6 0c-.69 0-1.25.56-1.25 1.25s.56 1.25 1.25 1.25 1.25-.56 1.25-1.25-.56-1.25-1.25-1.25zM12 2C6.48 2 2 6.48 2 12s4.48 10 10 10 10-4.48 10-10S17.52 2 12 2zm0 18c-4.41 0-8-3.59-8-8 0-.29.02-.58.05-.86 2.36-1.05 4.23-2.98 5.21-5.37C11.07 8.33 14.05 10 17.42 10c.78 0 1.53-.09 2.25-.26.21.71.33 1.47.33 2.26 0 4.41-3.59 8-8 8z"/>
        <path d="M0 0h24v24H0z" fill="none"/>
    </symbol>
    <symbol id="icon_print" viewBox="0 0 20.016 18.016">
        <path d="M17.012,5.004H3.004C1.342,5.004,0,6.347,0,8.008v6.004h4.004v4.004h12.008v-4.004h4.004V8.008C20.016,6.347,18.674,5.004,17.012,5.004L17.012,5.004z M14.012,16.012H6.004v-5.004h8.008V16.012zM17.012,9.008c-0.55,0-1-0.45-1-1c0-0.55,0.45-1,1-1c0.553,0,1.003,0.45,1.003,1C18.015,8.558,17.565,9.008,17.012,9.008L17.012,9.008zM16.012,0H4.004v4.004h12.008V0z M16.012,0"/>
    </symbol>
    <symbol id="cust_arrow_medium" viewBox="0 0 30 30">
    	<polygon class="st0" points="9.72,29.397 5.478,25.155 15.632,15.001 5.484,4.914 9.714,0.659 24.13,14.988 	"/>
    </symbol>
    <symbol  id="cust_tick_medium"  viewBox="0 0 16.591 12.007">
        <polygon class="st0" points="16.591,1.066 15.525,0 5.667,9.858 1.066,5.257 0,6.323 5.684,12.007 6.749,10.941 6.732,10.924 "/>
    </symbol>
    <symbol id="cust_content" viewBox="0 0 39.75 39.75">
		<path d="M3.614,7.227H0v28.909c0,1.987,1.626,3.614,3.614,3.614h28.909v-3.614H3.614V7.227z"/>
		<path d="m36.14 0h-25.295c-1.988 0-3.614 1.626-3.614 3.614v25.295c0 1.988 1.626 3.614 3.614 3.614h25.295c1.987 0 3.614-1.626 3.614-3.614v-25.295c0-1.988-1.626-3.614-3.614-3.614m0 28.909h-25.295v-25.295h25.295v25.295"/>
		<path d="m27.28 16.625l-4.811 6.405-4-4.436-5.531 6.937 20.937.032z"/>
    </symbol>
    <symbol id="cust_from_name" viewBox="0 0 36.429 25.5">
		<path d="m26.411 12.75c2.514 0 4.535-2.04 4.535-4.554s-2.02-4.554-4.535-4.554c-2.514 0-4.554 2.04-4.554 4.554s2.04 4.554 4.554 4.554"/>
		<path d="m12.75 10.929c3.02 0 5.446-2.441 5.446-5.464 0-3.02-2.422-5.465-5.446-5.465s-5.464 2.441-5.464 5.464c0 3.02 2.44 5.465 5.464 5.465"/>
		<path d="m26.411 16.393c-3.333 0-10.02 1.676-10.02 5.01v4.098h20.04v-4.098c0-3.333-6.685-5.01-10.02-5.01"/>
		<path d="m12.75 14.571c-4.244 0-12.75 2.132-12.75 6.375v4.554h12.75v-4.098c0-1.548.601-4.262 4.317-6.32-1.585-.328-3.115-.511-4.317-.511"/>
    </symbol>
    <symbol id="cust_message_subject" viewBox="0 0 30.155 26.385">
		<path d="m0 22.616h18.847v3.769h-18.847z"/>
		<path d="m0 15.08h30.16v3.769h-30.16z"/>
		<path d="m0 7.539h30.16v3.769h-30.16z"/>
		<path d="m0 0h30.16v3.769h-30.16z"/>
    </symbol>
    <symbol id="cust_send_time" viewBox="0 0 35.938 35.938">
		<path d="m15.972 27.951c0 1.098.898 1.997 1.997 1.997s1.997-.898 1.997-1.997-.898-1.997-1.997-1.997-1.997.899-1.997 1.997m0-27.951v7.986h3.993v-3.833c6.768.978 11.979 6.768 11.979 13.816 0 7.727-6.249 13.976-13.976 13.976s-13.975-6.25-13.975-13.976c0-3.354 1.178-6.429 3.155-8.825l10.821 10.821 2.815-2.815-13.577-13.576v.04c-4.372 3.274-7.207 8.465-7.207 14.355 0 9.923 8.03 17.969 17.969 17.969 9.923 0 17.969-8.05 17.969-17.969s-8.05-17.969-17.969-17.969h-1.997m13.976 17.969c0-1.098-.898-1.997-1.997-1.997s-1.997.898-1.997 1.997.898 1.997 1.997 1.997 1.997-.899 1.997-1.997m-23.958 0c0 1.098.898 1.997 1.997 1.997s1.997-.898 1.997-1.997-.898-1.997-1.997-1.997-1.997.899-1.997 1.997" />
    </symbol>
    <symbol id="cust_heart"  viewBox="0 0 16.975 15.617">
		<path class="st0" d="M8.487,15.617l-1.188-1.188C2.886,10.524,0,7.893,0,4.668C0,2.037,2.037,0,4.668,0
			c1.443,0,2.886,0.679,3.819,1.782C9.421,0.679,10.864,0,12.307,0c2.631,0,4.668,2.037,4.668,4.668
			c0,3.225-2.886,5.856-7.299,9.76L8.487,15.617z"/>
    </symbol>
    <symbol id="cust_cross" viewBox="0 0 9.868 9.868">
        <polygon class="st0" points="9.868,0.88 8.987,0 4.934,4.053 0.88,0 0,0.88 4.054,4.934 0,8.987 0.88,9.868 4.934,5.814
    	8.987,9.868 9.868,8.987 5.814,4.934 "/>
    </symbol>
    <symbol id="cust_desktop" viewBox="0 0 21.127 19.162">
        <path class="st0" d="M19.403,0H1.724C0.773,0,0,0.773,0,1.723V13.51c0,0.95,0.773,1.723,1.724,1.723H8.84v2.447H6.875v1.482h7.376
            V17.68h-1.964v-2.447h7.116c0.95,0,1.724-0.773,1.724-1.723V1.723C21.127,0.773,20.354,0,19.403,0z M19.645,1.482v12.269H1.481
            V1.482H19.645z"/>
    </symbol>
    <symbol id="cust_mobile" viewBox="0 0 12.031 19.126">
        <path class="st0" d="M10.45,0.008L1.58,0C0.708,0,0,0.709,0,1.58v15.966c0,0.872,0.709,1.581,1.58,1.581h8.87
            c0.872,0,1.581-0.709,1.581-1.581V1.58C12.031,0.713,11.322,0.008,10.45,0.008z M10.644,3.161v12.805H1.387V3.161H10.644z"/>
    </symbol>
    <symbol id="cust_tablet" viewBox="0 0 19.623 14.16">
        <path class="st0" d="M18.007,0H1.617C0.725,0,0,0.725,0,1.616v10.927c0,0.891,0.725,1.616,1.617,1.616h16.39
            c0.887,0,1.607-0.725,1.607-1.616l0.009-10.927C19.623,0.725,18.898,0,18.007,0z M3.232,12.749V1.411h13.159v11.338H3.232z"/>
    </symbol>
    <symbol id="cust_rotate" viewBox="0 0 21.506 18.953">
        <path class="st0" d="M21.194,5.144c-0.327-0.223-0.772-0.139-0.994,0.188l-1.459,2.14c-0.379-1.766-1.257-3.389-2.564-4.696
            C14.387,0.986,12.006,0,9.474,0S4.562,0.986,2.772,2.776c-3.696,3.696-3.696,9.709,0,13.405c1.848,1.848,4.275,2.772,6.702,2.772
            s4.855-0.924,6.702-2.772c0.279-0.279,0.279-0.733,0-1.012c-0.279-0.279-0.732-0.279-1.012,0c-3.138,3.138-8.244,3.138-11.381,0
            c-3.138-3.138-3.138-8.243,0-11.381c1.52-1.52,3.541-2.357,5.69-2.357c2.15,0,4.171,0.837,5.691,2.357
            c1.173,1.173,1.938,2.647,2.226,4.247l-2.539-1.732c-0.327-0.223-0.772-0.138-0.994,0.188c-0.223,0.326-0.138,0.771,0.188,0.994
            l3.788,2.584c0,0,0,0,0,0.001c0.06,0.041,0.124,0.071,0.19,0.091c0.002,0,0.004,0.001,0.006,0.002
            c0.011,0.003,0.022,0.005,0.034,0.008c0.057,0.014,0.115,0.023,0.173,0.023c0.229,0,0.453-0.109,0.592-0.313l2.553-3.743
            C21.604,5.812,21.52,5.367,21.194,5.144L21.194,5.144z M21.194,5.144"/>
    </symbol>
    <symbol id="cust_delete_cross" viewBox="0 0 18.398 18.609">
        <polygon class="st0" points="18.398,1.054 17.33,0 9.199,8.236 1.068,0 0,1.054 8.145,9.304 0,17.555 1.068,18.609 9.199,10.372
            17.33,18.609 18.398,17.555 10.253,9.304 "/>
    </symbol>
    <symbol id="icon_facebook" viewBox="0 0 23.958 23.958">
         <path class="st0" d="M11.979,0C5.363,0,0,5.363,0,11.979c0,6.616,5.363,11.979,11.979,11.979s11.979-5.363,11.979-11.979
     	C23.958,5.363,18.595,0,11.979,0z M14.816,10.233v1.854h-2.251v5.567h-2.126v-5.567H8.511v-1.854h1.927V9.142
     	c0-1.565,1.086-2.837,2.577-2.837h1.801l0,1.973h-1.801c-0.213,0-0.45,0.28-0.45,0.655v1.3H14.816z"/>
    </symbol>
    <symbol id="icon_linkedin" viewBox="0 0 23.958 23.958">
        <path class="st0" d="M11.979,0C5.363,0,0,5.363,0,11.979c0,6.616,5.363,11.979,11.979,11.979s11.979-5.363,11.979-11.979
            C23.958,5.363,18.595,0,11.979,0z M8.639,17.021H5.952v-8.07h2.687V17.021z M8.399,7.452c-0.28,0.266-0.647,0.399-1.103,0.399H7.279
            c-0.445,0-0.803-0.133-1.075-0.399C5.933,7.186,5.797,6.855,5.797,6.459c0-0.402,0.14-0.734,0.419-0.997
            c0.28-0.263,0.645-0.395,1.095-0.395c0.451,0,0.812,0.132,1.083,0.395s0.41,0.596,0.415,0.997C8.815,6.855,8.678,7.186,8.399,7.452z
             M18.305,17.02h-2.679v-4.316c0-0.57-0.11-1.017-0.33-1.34c-0.22-0.323-0.563-0.485-1.03-0.485c-0.342,0-0.628,0.094-0.859,0.281
            c-0.231,0.187-0.403,0.419-0.517,0.696c-0.06,0.163-0.09,0.383-0.09,0.66v4.503h-2.679c0.011-2.166,0.016-3.922,0.016-5.269
            c0-1.346-0.003-2.15-0.008-2.41l-0.008-0.391H12.8v1.147c0.103-0.163,0.209-0.307,0.318-0.431c0.114-0.13,0.267-0.271,0.46-0.423
            c0.193-0.152,0.429-0.27,0.708-0.354c0.28-0.084,0.591-0.126,0.932-0.126c0.928,0,1.675,0.308,2.239,0.924
            c0.565,0.616,0.847,1.518,0.847,2.707V17.02z"/>
    </symbol>
    <symbol id="icon_twitter" viewBox="0 0 24 24">
         <path class="st0" d="M12,0C5.373,0,0,5.373,0,12s5.373,12,12,12c6.627,0,12-5.373,12-12S18.627,0,12,0z M17.137,9.254
            c0.005,0.12,0.008,0.24,0.008,0.36c0,3.681-2.667,7.925-7.544,7.923c-1.496,0.001-2.89-0.468-4.063-1.273
            c0.207,0.026,0.419,0.04,0.633,0.04c1.243,0.002,2.386-0.446,3.292-1.199c-1.161-0.027-2.139-0.848-2.476-1.973
            c0.161,0.034,0.328,0.053,0.499,0.055c0.242,0.001,0.476-0.032,0.698-0.095c-1.213-0.268-2.127-1.419-2.127-2.791
            c0-0.012,0-0.024,0-0.036c0.358,0.216,0.766,0.347,1.201,0.367C6.548,10.118,6.08,9.245,6.08,8.264c0-0.519,0.131-1.004,0.359-1.418
            c1.308,1.729,3.262,2.877,5.464,3.02c-0.046-0.206-0.069-0.421-0.069-0.64c0-1.55,1.187-2.787,2.651-2.763
            c0.763,0.013,1.452,0.363,1.935,0.913c0.604-0.116,1.172-0.338,1.683-0.649c-0.197,0.647-0.618,1.186-1.166,1.523
            c0.537-0.06,1.047-0.202,1.523-0.417C18.105,8.385,17.655,8.868,17.137,9.254z"/>
    </symbol>
    <symbol id="cust_attach" viewBox="0 0 15.842 8.69">
        <path class="st0" d="M13.079,0h-9.21C1.736,0,0,1.949,0,4.345S1.736,8.69,3.869,8.69h8.289V7.862H3.869
            c-1.727,0-3.132-1.577-3.132-3.517s1.405-3.518,3.132-3.518h9.21c1.117,0,2.026,1.021,2.026,2.276c0,1.256-0.909,2.276-2.026,2.276
            H5.342c-0.508,0-0.921-0.464-0.921-1.034S4.834,3.31,5.342,3.31h6.816V2.483H5.342c-0.914,0-1.658,0.835-1.658,1.862
            c0,1.026,0.744,1.862,1.658,1.862h7.737c1.523,0,2.763-1.392,2.763-3.104S14.602,0,13.079,0z"/>
    </symbol>
    <symbol id="cust_undo" viewBox="0 0 10.055 11.463">
        <path class="st0" d="M8.158,5.069c-1.132-1.2-2.664-1.793-4.19-1.894L3.966,0L0,3.971l3.971,3.966L3.969,4.749
            c1.125,0.096,2.3,0.624,3.279,1.686c1.19,1.292,1.196,3.831,1.252,5.028c0.331-0.003,0.502-0.007,0.789-0.007
            c0.277,0,0.455,0.004,0.765-0.001C9.998,9.862,9.977,6.998,8.158,5.069z"/>
    </symbol>
    <symbol id="cust_textCenter" viewBox="0 0 16 16">
		<rect class="st0" width="16" height="1"/>
		<rect x="2.5" y="15" class="st0" width="11" height="1"/>
		<rect y="12" class="st0" width="16" height="1"/>
		<rect x="2.5" y="9" class="st0" width="11" height="1"/>
		<rect y="6" class="st0" width="16" height="1"/>
		<rect x="2.5" y="3" class="st0" width="11" height="1"/>
    </symbol>
    <symbol id="cust_textLeft" viewBox="0 0 16 16">
		<rect class="st0" width="16" height="1"/>
		<rect y="15" class="st0" width="11" height="1"/>
		<rect y="12" class="st0" width="16" height="1"/>
		<rect y="9" class="st0" width="11" height="1"/>
		<rect y="6" class="st0" width="16" height="1"/>
		<rect y="3" class="st0" width="11" height="1"/>
    </symbol>
    <symbol id="cust_mobile" viewBox="0 0 12.031 19.126">
        <path class="st0" d="M10.45,0.008L1.58,0C0.708,0,0,0.709,0,1.58v15.966c0,0.872,0.709,1.581,1.58,1.581h8.87
            c0.872,0,1.581-0.709,1.581-1.581V1.58C12.031,0.713,11.322,0.008,10.45,0.008z M10.644,3.161v12.805H1.387V3.161H10.644z"/>
    </symbol>
    <symbol id="cust_textRight" viewBox="0 0 16 16">
		<rect class="st0" width="16" height="1"/>
		<rect x="5" y="15" class="st0" width="11" height="1"/>
		<rect y="12" class="st0" width="16" height="1"/>
		<rect x="5" y="9" class="st0" width="11" height="1"/>
		<rect y="6" class="st0" width="16" height="1"/>
		<rect x="5" y="3" class="st0" width="11" height="1"/>
    </symbol>
    <symbol id="cust_mobile" viewBox="0 0 12.031 19.126">
        <path class="st0" d="M10.45,0.008L1.58,0C0.708,0,0,0.709,0,1.58v15.966c0,0.872,0.709,1.581,1.58,1.581h8.87
            c0.872,0,1.581-0.709,1.581-1.581V1.58C12.031,0.713,11.322,0.008,10.45,0.008z M10.644,3.161v12.805H1.387V3.161H10.644z"/>
    </symbol>
    <symbol id="cust_tablet" viewBox="0 0 19.623 14.16">
        <path class="st0" d="M18.007,0H1.617C0.725,0,0,0.725,0,1.616v10.927c0,0.891,0.725,1.616,1.617,1.616h16.39
            c0.887,0,1.607-0.725,1.607-1.616l0.009-10.927C19.623,0.725,18.898,0,18.007,0z M3.232,12.749V1.411h13.159v11.338H3.232z"/>
    </symbol>
    <symbol id="cust_rotate" viewBox="0 0 21.506 18.953">
        <path class="st0" d="M21.194,5.144c-0.327-0.223-0.772-0.139-0.994,0.188l-1.459,2.14c-0.379-1.766-1.257-3.389-2.564-4.696
            C14.387,0.986,12.006,0,9.474,0S4.562,0.986,2.772,2.776c-3.696,3.696-3.696,9.709,0,13.405c1.848,1.848,4.275,2.772,6.702,2.772
            s4.855-0.924,6.702-2.772c0.279-0.279,0.279-0.733,0-1.012c-0.279-0.279-0.732-0.279-1.012,0c-3.138,3.138-8.244,3.138-11.381,0
            c-3.138-3.138-3.138-8.243,0-11.381c1.52-1.52,3.541-2.357,5.69-2.357c2.15,0,4.171,0.837,5.691,2.357
            c1.173,1.173,1.938,2.647,2.226,4.247l-2.539-1.732c-0.327-0.223-0.772-0.138-0.994,0.188c-0.223,0.326-0.138,0.771,0.188,0.994
            l3.788,2.584c0,0,0,0,0,0.001c0.06,0.041,0.124,0.071,0.19,0.091c0.002,0,0.004,0.001,0.006,0.002
            c0.011,0.003,0.022,0.005,0.034,0.008c0.057,0.014,0.115,0.023,0.173,0.023c0.229,0,0.453-0.109,0.592-0.313l2.553-3.743
            C21.604,5.812,21.52,5.367,21.194,5.144L21.194,5.144z M21.194,5.144"/>
    </symbol>
    <symbol id="cust_delete_cross" viewBox="0 0 18.398 18.609">
        <polygon class="st0" points="18.398,1.054 17.33,0 9.199,8.236 1.068,0 0,1.054 8.145,9.304 0,17.555 1.068,18.609 9.199,10.372
            17.33,18.609 18.398,17.555 10.253,9.304 "/>
    </symbol>
    <symbol id="icon_facebook" viewBox="0 0 23.958 23.958" style="enable-background:new 0 0 23.958 23.958;">
         <path class="st0" d="M11.979,0C5.363,0,0,5.363,0,11.979c0,6.616,5.363,11.979,11.979,11.979s11.979-5.363,11.979-11.979
     	C23.958,5.363,18.595,0,11.979,0z M14.816,10.233v1.854h-2.251v5.567h-2.126v-5.567H8.511v-1.854h1.927V9.142
     	c0-1.565,1.086-2.837,2.577-2.837h1.801l0,1.973h-1.801c-0.213,0-0.45,0.28-0.45,0.655v1.3H14.816z"/>
     </symbol>
    <symbol id="cust_linkedin_circle" viewBox="0 0 23.958 23.958">
        <path class="st0" d="M11.979,0C5.363,0,0,5.363,0,11.979c0,6.616,5.363,11.979,11.979,11.979s11.979-5.363,11.979-11.979
     	C23.958,5.363,18.595,0,11.979,0z M8.639,17.021H5.952v-8.07h2.687V17.021z M8.399,7.452c-0.28,0.266-0.647,0.399-1.103,0.399H7.279
     	c-0.445,0-0.803-0.133-1.075-0.399C5.933,7.186,5.797,6.855,5.797,6.459c0-0.402,0.14-0.734,0.419-0.997
     	c0.28-0.263,0.645-0.395,1.095-0.395c0.451,0,0.812,0.132,1.083,0.395s0.41,0.596,0.415,0.997C8.815,6.855,8.678,7.186,8.399,7.452z
     	 M18.305,17.02h-2.679v-4.316c0-0.57-0.11-1.017-0.33-1.34c-0.22-0.323-0.563-0.485-1.03-0.485c-0.342,0-0.628,0.094-0.859,0.281
     	c-0.231,0.187-0.403,0.419-0.517,0.696c-0.06,0.163-0.09,0.383-0.09,0.66v4.503h-2.679c0.011-2.166,0.016-3.922,0.016-5.269
     	c0-1.346-0.003-2.15-0.008-2.41l-0.008-0.391H12.8v1.147c0.103-0.163,0.209-0.307,0.318-0.431c0.114-0.13,0.267-0.271,0.46-0.423
     	c0.193-0.152,0.429-0.27,0.708-0.354c0.28-0.084,0.591-0.126,0.932-0.126c0.928,0,1.675,0.308,2.239,0.924
     	c0.565,0.616,0.847,1.518,0.847,2.707V17.02z"/>
    </symbol>
    <symbol id="cust_twitter_circle" viewBox="0 0 24 24">
     <path class="st0" d="M12,0C5.373,0,0,5.373,0,12s5.373,12,12,12c6.627,0,12-5.373,12-12S18.627,0,12,0z M17.137,9.254
     	c0.005,0.12,0.008,0.24,0.008,0.36c0,3.681-2.667,7.925-7.544,7.923c-1.496,0.001-2.89-0.468-4.063-1.273
     	c0.207,0.026,0.419,0.04,0.633,0.04c1.243,0.002,2.386-0.446,3.292-1.199c-1.161-0.027-2.139-0.848-2.476-1.973
     	c0.161,0.034,0.328,0.053,0.499,0.055c0.242,0.001,0.476-0.032,0.698-0.095c-1.213-0.268-2.127-1.419-2.127-2.791
     	c0-0.012,0-0.024,0-0.036c0.358,0.216,0.766,0.347,1.201,0.367C6.548,10.118,6.08,9.245,6.08,8.264c0-0.519,0.131-1.004,0.359-1.418
     	c1.308,1.729,3.262,2.877,5.464,3.02c-0.046-0.206-0.069-0.421-0.069-0.64c0-1.55,1.187-2.787,2.651-2.763
     	c0.763,0.013,1.452,0.363,1.935,0.913c0.604-0.116,1.172-0.338,1.683-0.649c-0.197,0.647-0.618,1.186-1.166,1.523
     	c0.537-0.06,1.047-0.202,1.523-0.417C18.105,8.385,17.655,8.868,17.137,9.254z"/>
     </symbol>
    <symbol id="icon_twitter" viewBox="0 0 24 24">
		<path class="st0" d="M12,0C5.373,0,0,5.373,0,12s5.373,12,12,12c6.627,0,12-5.373,12-12S18.627,0,12,0z M17.137,9.254
			c0.005,0.12,0.008,0.24,0.008,0.36c0,3.681-2.667,7.925-7.544,7.923c-1.496,0.001-2.89-0.468-4.063-1.273
			c0.207,0.026,0.419,0.04,0.633,0.04c1.243,0.002,2.386-0.446,3.292-1.199c-1.161-0.027-2.139-0.848-2.476-1.973
			c0.161,0.034,0.328,0.053,0.499,0.055c0.242,0.001,0.476-0.032,0.698-0.095c-1.213-0.268-2.127-1.419-2.127-2.791
			c0-0.012,0-0.024,0-0.036c0.358,0.216,0.766,0.347,1.201,0.367C6.548,10.118,6.08,9.245,6.08,8.264c0-0.519,0.131-1.004,0.359-1.418
			c1.308,1.729,3.262,2.877,5.464,3.02c-0.046-0.206-0.069-0.421-0.069-0.64c0-1.55,1.187-2.787,2.651-2.763
			c0.763,0.013,1.452,0.363,1.935,0.913c0.604-0.116,1.172-0.338,1.683-0.649c-0.197,0.647-0.618,1.186-1.166,1.523
			c0.537-0.06,1.047-0.202,1.523-0.417C18.105,8.385,17.655,8.868,17.137,9.254z"/>
    </symbol>
     <symbol id="cust_add_image" viewBox="0 0 15.935 15.939">
		<polygon class="st0" points="6.192,12.773 10.289,12.773 8.275,10.093"/>
		<polygon class="st0" points="6.029,12.773 4.562,11.006 3.185,12.773"/>
		<circle class="st0" cx="4.156" cy="7.232" r="0.792"/>
		<path class="st0" d="M12.977,10.154c-0.089,0.024-0.194,0.052-0.306,0.083l-0.006,4.91H0.792V3.275h5
			c0.09-0.306,0.16-0.538,0.245-0.792H1.188C0.533,2.483,0,3.016,0,3.671v11.082c0,0.655,0.533,1.187,1.188,1.187h11.082
			c0.655,0,1.187-0.533,1.187-1.187l0.011-4.734c-0.04,0.012-0.079,0.022-0.119,0.033L12.977,10.154z"/>
		<path class="st0" d="M11.582,0c-2.4,0-4.354,1.953-4.354,4.354c0,2.4,1.953,4.353,4.354,4.353c2.4,0,4.353-1.953,4.353-4.353
			C15.935,1.953,13.982,0,11.582,0z M11.582,7.915c-1.964,0-3.562-1.598-3.562-3.562c0-1.964,1.598-3.562,3.562-3.562
			c1.964,0,3.562,1.598,3.562,3.562C15.144,6.318,13.546,7.915,11.582,7.915z"/>
		<polygon class="st0" points="12.069,2.081 11.097,2.081 11.097,3.897 9.303,3.897 9.303,4.87 11.097,4.87 11.097,6.663
			12.069,6.663 12.069,4.87 13.885,4.87 13.885,3.897 12.069,3.897"/>
     </symbol>
    <symbol id="cust_tracking_domains" viewBox="0 0 24 24">
        <path d="M0 0h24v24H0z" fill="none"/>
        <path d="M11.99 2C6.47 2 2 6.48 2 12s4.47 10 9.99 10C17.52 22 22 17.52 22 12S17.52 2 11.99 2zm6.93 6h-2.95c-.32-1.25-.78-2.45-1.38-3.56 1.84.63 3.37 1.91 4.33 3.56zM12 4.04c.83 1.2 1.48 2.53 1.91 3.96h-3.82c.43-1.43 1.08-2.76 1.91-3.96zM4.26 14C4.1 13.36 4 12.69 4 12s.1-1.36.26-2h3.38c-.08.66-.14 1.32-.14 2 0 .68.06 1.34.14 2H4.26zm.82 2h2.95c.32 1.25.78 2.45 1.38 3.56-1.84-.63-3.37-1.9-4.33-3.56zm2.95-8H5.08c.96-1.66 2.49-2.93 4.33-3.56C8.81 5.55 8.35 6.75 8.03 8zM12 19.96c-.83-1.2-1.48-2.53-1.91-3.96h3.82c-.43 1.43-1.08 2.76-1.91 3.96zM14.34 14H9.66c-.09-.66-.16-1.32-.16-2 0-.68.07-1.35.16-2h4.68c.09.65.16 1.32.16 2 0 .68-.07 1.34-.16 2zm.25 5.56c.6-1.11 1.06-2.31 1.38-3.56h2.95c-.96 1.65-2.49 2.93-4.33 3.56zM16.36 14c.08-.66.14-1.32.14-2 0-.68-.06-1.34-.14-2h3.38c.16.64.26 1.31.26 2s-.1 1.36-.26 2h-3.38z"/>
    </symbol>
    <symbol id="cust_sender_info" viewBox="0 0 24 24">
        <path d="M12 12c2.21 0 4-1.79 4-4s-1.79-4-4-4-4 1.79-4 4 1.79 4 4 4zm0 2c-2.67 0-8 1.34-8 4v2h16v-2c0-2.66-5.33-4-8-4z"/>
        <path d="M0 0h24v24H0z" fill="none"/>
    </symbol>
    <symbol id="cust_redo" viewBox="0 0 10.055 11.463">
        <path class="st0" d="M1.896,5.069c1.132-1.2,2.664-1.793,4.19-1.894L6.088,0l3.966,3.971L6.084,7.937l0.002-3.188
            c-1.125,0.096-2.3,0.624-3.279,1.686c-1.19,1.292-1.196,3.831-1.252,5.028c-0.331-0.003-0.502-0.007-0.789-0.007
            c-0.277,0-0.455,0.004-0.765-0.001C0.057,9.862,0.077,6.998,1.896,5.069z"/>
    </symbol>
    <symbol id="cust_delete_image" viewBox="0 0 15.935 15.939">
		<polygon class="st0" points="6.192,12.773 10.289,12.773 8.275,10.093 	"/>
		<polygon class="st0" points="6.029,12.773 4.562,11.006 3.185,12.773 	"/>
		<circle class="st0" cx="4.156" cy="7.232" r="0.792"/>
		<path class="st0" d="M12.977,10.154c-0.089,0.024-0.194,0.052-0.306,0.083l-0.006,4.91H0.792V3.275h5
			c0.09-0.306,0.16-0.538,0.245-0.792H1.188C0.533,2.483,0,3.016,0,3.671v11.082c0,0.655,0.533,1.187,1.188,1.187h11.082
			c0.655,0,1.187-0.533,1.187-1.187l0.011-4.734c-0.04,0.012-0.079,0.022-0.119,0.033L12.977,10.154z"/>
		<path class="st0" d="M11.582,0c-2.4,0-4.354,1.953-4.354,4.354c0,2.4,1.953,4.353,4.354,4.353c2.4,0,4.353-1.953,4.353-4.353
			C15.935,1.953,13.982,0,11.582,0z M11.582,7.915c-1.964,0-3.562-1.598-3.562-3.562c0-1.964,1.598-3.562,3.562-3.562
			c1.964,0,3.562,1.598,3.562,3.562C15.144,6.318,13.546,7.915,11.582,7.915z"/>
		<polygon class="st0" points="12.07,3.897 11.099,3.897 11.097,3.897 9.303,3.897 9.303,4.87 11.097,4.87 11.094,4.871
			12.065,4.871 12.069,4.87 13.885,4.87 13.885,3.897 12.069,3.897 	"/>
    </symbol>
    <symbol id="cust_gift" viewBox="0 0 51.726 63.446">
        <path class="st0" d="M50.578,15.591h-6.767l0.89-0.859c2.901-2.804,3.441-7.321,1.284-10.741C44.403,1.492,41.692,0,38.734,0
            c-1.62,0-3.201,0.46-4.573,1.329c-3.092,1.954-6.509,9.723-7.834,12.972l-0.463,1.135l-0.463-1.135
            c-1.327-3.25-4.746-11.021-7.833-12.969c-1.375-0.87-2.957-1.33-4.576-1.33c-2.96,0-5.671,1.492-7.252,3.992
            c-2.152,3.411-1.613,7.928,1.282,10.738l0.884,0.858H1.147C0.515,15.591,0,16.105,0,16.738v13.984c0,0.633,0.515,1.147,1.147,1.147
            h1.407v30.429c0,0.633,0.516,1.147,1.148,1.147h44.319c0.633,0,1.147-0.515,1.147-1.147V31.87h1.408
            c0.633,0,1.147-0.515,1.147-1.147V16.738C51.726,16.105,51.211,15.591,50.578,15.591z M18.685,61.151H4.851V31.87h13.834V61.151z
            M18.685,29.575H2.295V17.887h16.39V29.575z M9.632,13.888c-2.924-1.854-3.8-5.743-1.954-8.67V5.217
            c1.159-1.829,3.146-2.921,5.313-2.921c1.187,0,2.345,0.337,3.349,0.976c2.412,1.521,5.667,8.888,6.607,11.108l0.28,0.665
            l-0.721,0.03c-1.234,0.051-2.426,0.077-3.541,0.077C12.589,15.152,10.38,14.36,9.632,13.888z M30.745,61.151h-9.766V31.87h9.766
            V61.151z M30.745,29.575h-9.766V17.887h9.766V29.575z M29.218,15.075l-0.72-0.03l0.28-0.664c0.939-2.221,4.19-9.586,6.608-11.113
            c1.006-0.636,2.163-0.972,3.346-0.972c2.168,0,4.153,1.092,5.313,2.921c1.847,2.931,0.971,6.815-1.953,8.661
            c-0.751,0.476-2.968,1.273-9.363,1.273C31.607,15.151,30.426,15.126,29.218,15.075z M46.875,61.151H33.041V31.87h13.834V61.151z
            M49.431,29.575h-16.39V17.887h16.39V29.575z"/>
    </symbol>
    <symbol id="cust_web">
		<path d="M9.622,13.123c-1.101,0.58-2.221,0.8-3.561,0.8C2.78,13.923,0,11.522,0,7.682C0,3.561,2.86,0,7.301,0
			c3.481,0,5.821,2.44,5.821,5.781c0,3.001-1.68,4.761-3.561,4.761c-0.8,0-1.541-0.54-1.48-1.76h-0.08c-0.7,1.18-1.62,1.76-2.82,1.76
			c-1.161,0-2.161-0.94-2.161-2.521c0-2.48,1.96-4.741,4.741-4.741c0.86,0,1.62,0.18,2.14,0.42l-0.68,3.621
			c-0.3,1.521-0.06,2.221,0.6,2.241c1.021,0.02,2.161-1.34,2.161-3.661c0-2.9-1.74-4.981-4.841-4.981C3.881,0.92,1.14,3.5,1.14,7.562
			c0,3.34,2.18,5.401,5.141,5.401c1.14,0,2.2-0.24,3.021-0.7L9.622,13.123z M8.521,4.48c-0.2-0.06-0.54-0.14-1-0.14
			c-1.76,0-3.181,1.66-3.181,3.601c0,0.88,0.44,1.521,1.32,1.521c1.16,0,2.22-1.48,2.44-2.721L8.521,4.48z"/>
     </symbol>
	<symbol id="cust_save_as" x="0px" y="0px" viewBox="0 0 14.375 14.313">
        <polygon class="st0" points="13.016,0 6.494,0 6.494,0.769 6.494,1.292 6.494,5.879 4.05,5.879 7.229,8.877 10.325,5.879
        	7.786,5.879 7.786,1.292 13.016,1.292 13.016,12.896 1.359,12.896 1.359,0 0,0 0,12.896 0,13.468 0,14.313 14.375,14.313 14.375,13
        	14.375,12.896 14.375,1.292 14.375,0 "/>
    </symbol>
    <symbol id="cust_restricted" viewBox="0 0 471.979 471.979">
		<path d="M235.989,471.979c63.035,0,122.296-24.547,166.869-69.12s69.121-103.834,69.121-166.869
			s-24.547-122.298-69.122-166.87C358.285,24.548,299.023,0,235.989,0C172.954,0,113.692,24.548,69.12,69.12S0,172.954,0,235.989
			s24.547,122.297,69.12,166.869C113.693,447.431,172.954,471.979,235.989,471.979z M235.989,25
			c116.339,0,210.99,94.649,210.99,210.989s-94.65,210.989-210.99,210.989C119.65,446.979,25,352.328,25,235.989
			S119.65,25,235.989,25z"/>
		<path d="M100.489,248.489h271c6.904,0,12.5-5.597,12.5-12.5s-5.596-12.5-12.5-12.5h-271
			c-6.903,0-12.5,5.597-12.5,12.5C87.989,242.893,93.586,248.489,100.489,248.489z"/>
    </symbol>
    <symbol id="cust_add_template" x="0px" y="0px" viewBox="0 0 14.875 14.301">
		<path class="st0" d="M10.912,3.819V1.242V0.37V0H0v0.028v1.214v8.05v1.242h1.282h2.64v2.524v1.242h1.282h8.388h1.283v-1.242V5.062
			V3.828V3.819H10.912z M3.922,9.292h-2.64v-8.05H9.63v2.577H6.774v1.242h6.817v7.997H5.204v-2.524V9.292H3.922z"/>
		<path class="st0" d="M7.325,9.081l-0.805,1.314l4.117-0.665L9.205,6.011L8.4,7.325c-2.118-0.579-3.373-1.561-4.088-3.42
			C3.896,6.607,5.243,7.935,7.325,9.081z"/>
    </symbol>
     <symbol id="cust_send_campaign" viewBox="0 0 21.402 18.344">
        <path d="M0.01,18.344l21.392-9.172L0.01,0L0,7.134l15.287,2.038L0,11.21L0.01,18.344z"/>
     </symbol>
     <symbol id="cust_list" viewBox="0 0 18.854 15.287">
		 <path d="M1.529,6.115C0.683,6.115,0,6.798,0,7.644s0.683,1.529,1.529,1.529s1.529-0.683,1.529-1.529
			S2.375,6.115,1.529,6.115z M1.529,0C0.683,0,0,0.683,0,1.529s0.683,1.529,1.529,1.529s1.529-0.683,1.529-1.529S2.375,0,1.529,0z
			 M1.529,12.23C0.683,12.23,0,12.923,0,13.758s0.693,1.529,1.529,1.529s1.529-0.693,1.529-1.529S2.375,12.23,1.529,12.23z
			 M4.586,14.777h14.268v-2.038H4.586V14.777z M4.586,8.663h14.268V6.624H4.586V8.663z M4.586,0.51v2.038h14.268V0.51H4.586z"/>
     </symbol>
     <symbol id="cust_upload_contacts" viewBox="0 0 14.268 17.325">
		<path class="st0" d="M4.077,13.249h6.115V7.134h4.077L7.134,0L0,7.134h4.077V13.249z M0,15.287h14.268v2.038H0V15.287z"/>
     </symbol>
     <symbol id="cust_upload_profile" viewBox="0 0 20.383 20.383">
         <path d="M7.134,9.937c-0.703,0-1.274,0.571-1.274,1.274c0,0.703,0.571,1.274,1.274,1.274s1.274-0.571,1.274-1.274
     	C8.408,10.507,7.837,9.937,7.134,9.937z M13.249,9.937c-0.703,0-1.274,0.571-1.274,1.274c0,0.703,0.571,1.274,1.274,1.274
     	s1.274-0.571,1.274-1.274C14.523,10.507,13.952,9.937,13.249,9.937z M10.191,0C4.566,0,0,4.566,0,10.191s4.566,10.191,10.191,10.191
     	s10.191-4.566,10.191-10.191S15.817,0,10.191,0z M10.191,18.344c-4.494,0-8.153-3.659-8.153-8.153c0-0.296,0.02-0.591,0.051-0.876
     	c2.405-1.07,4.311-3.037,5.31-5.473c1.845,2.609,4.882,4.311,8.316,4.311c0.795,0,1.559-0.092,2.293-0.265
     	c0.214,0.724,0.336,1.498,0.336,2.303C18.344,14.686,14.686,18.344,10.191,18.344z"/>
     </symbol>
     <symbol id="cust_opened_campaign" viewBox="0 0 12.958 8.835">
		 <style type="text/css">
			.st0{fill:#FFFFFF;}
		 </style>
		 <path class="st0" d="M6.479,0C3.534,0,1.019,1.832,0,4.418c1.019,2.586,3.534,4.418,6.479,4.418s5.46-1.832,6.479-4.418
			C11.939,1.832,9.424,0,6.479,0z M6.479,7.363c-1.626,0-2.945-1.319-2.945-2.945s1.319-2.945,2.945-2.945s2.945,1.319,2.945,2.945
			S8.105,7.363,6.479,7.363z M6.479,2.651c-0.978,0-1.767,0.789-1.767,1.767s0.789,1.767,1.767,1.767s1.767-0.789,1.767-1.767
			S7.457,2.651,6.479,2.651z"/>
     </symbol>
     <symbol id="cust_tel" viewBox="0 0 15.981 15.981">
		 <path class="st0" d="M3.214,6.916c1.278,2.513,3.338,4.563,5.851,5.851l1.953-1.953c0.24-0.24,0.595-0.32,0.906-0.213
			c0.994,0.328,2.069,0.506,3.17,0.506c0.488,0,0.888,0.4,0.888,0.888v3.099c0,0.488-0.4,0.888-0.888,0.888
			C6.756,15.981,0,9.225,0,0.888C0,0.4,0.4,0,0.888,0h3.107c0.488,0,0.888,0.4,0.888,0.888c0,1.11,0.178,2.175,0.506,3.17
			c0.098,0.311,0.027,0.657-0.222,0.906L3.214,6.916z"/>
     </symbol>
     <symbol id="cust_email" viewBox="0 0 15.118 12.094">
		 <path class="st0" d="M13.606,0H1.512C0.68,0,0.008,0.68,0.008,1.512L0,10.582c0,0.831,0.68,1.512,1.512,1.512h12.094
			c0.831,0,1.512-0.68,1.512-1.512V1.512C15.118,0.68,14.437,0,13.606,0z M13.606,3.024L7.559,6.803L1.512,3.024V1.512l6.047,3.779
			l6.047-3.779V3.024z"/>
     </symbol>
     <symbol id="cust_clicked_link" viewBox="0 0 8.11 10.534">
         <path class="st0" d="M7.878,9.002L5.257,5.271l2.487-0.594C7.938,4.631,8.081,4.47,8.106,4.273C8.13,4.076,8.03,3.885,7.854,3.793
         	L0.696,0.054c-0.158-0.082-0.348-0.07-0.493,0.032C0.057,0.189-0.02,0.364,0.004,0.54l1.089,8.002
         	c0.027,0.197,0.173,0.356,0.366,0.4s0.394-0.037,0.503-0.203L3.365,6.6l2.621,3.731c0.072,0.103,0.183,0.173,0.307,0.195
         	c0.124,0.022,0.252-0.007,0.355-0.079l1.114-0.783C7.977,9.513,8.029,9.217,7.878,9.002L7.878,9.002z M7.878,9.002"/>
     </symbol>
     <symbol id="cust_add_to_list" viewBox="0 0 12 12">
		 <style type="text/css">
			.st0{fill:#FFFFFF;}
		 </style>
		 <polygon class="st0" points="12,5 7,5 7,0 5,0 5,5 0,5 0,7 5,7 5,12 7,12 7,7 12,7 "/>
     </symbol>
     <symbol id="cust_link_sms" viewBox="0 0 13.672 13.117">
		<path class="st0" d="M11.275,0H2.397C1.075,0,0,1.075,0,2.397v5.476c0,1.322,1.075,2.397,2.397,2.397l5.655,0l2.707,2.707
			c0.092,0.092,0.214,0.14,0.339,0.14c0.062,0,0.124-0.012,0.183-0.037c0.179-0.074,0.296-0.249,0.296-0.443v-2.387
			c1.18-0.149,2.095-1.159,2.095-2.378V2.397C13.672,1.075,12.596,0,11.275,0L11.275,0z M12.713,7.873
			c0,0.793-0.645,1.438-1.438,1.438h-0.177c-0.265,0-0.479,0.215-0.479,0.479v1.69L8.589,9.451c-0.09-0.09-0.212-0.14-0.339-0.14
			H2.397c-0.793,0-1.438-0.645-1.438-1.438V2.397c0-0.793,0.645-1.438,1.438-1.438h8.878c0.793,0,1.438,0.645,1.438,1.438V7.873z
			 M12.713,7.873"/>
		<path class="st0" d="M10.364,3.394H3.307c-0.265,0-0.479,0.215-0.479,0.479c0,0.265,0.215,0.479,0.479,0.479h7.057
			c0.265,0,0.479-0.215,0.479-0.479C10.844,3.609,10.629,3.394,10.364,3.394L10.364,3.394z M10.364,3.394"/>
		<path class="st0" d="M10.364,6.079H3.307c-0.265,0-0.479,0.215-0.479,0.479c0,0.265,0.215,0.479,0.479,0.479h7.057
			c0.265,0,0.479-0.215,0.479-0.479C10.844,6.294,10.629,6.079,10.364,6.079L10.364,6.079z M10.364,6.079"/>
     </symbol>
     <symbol id="cust_refresh" viewBox="0 0 11.993 12">
         <path class="st0" d="M10.23,1.762C9.142,0.675,7.65,0,5.992,0C2.677,0,0,2.685,0,6s2.677,6,5.992,6c2.797,0,5.13-1.912,5.797-4.5
     	h-1.56c-0.615,1.747-2.28,3-4.237,3c-2.482,0-4.5-2.017-4.5-4.5s2.018-4.5,4.5-4.5c1.245,0,2.355,0.517,3.165,1.335L6.742,5.25h5.25
     	V0L10.23,1.762z"/>
     </symbol>
     <symbol id="cust_star" viewBox="0 0 11.25 10.781">
         <path class="st0" d="M5.625,8.25l3.478,2.531L7.772,6.694l3.478-2.475H6.984L5.625,0L4.266,4.219H0l3.478,2.475l-1.331,4.087
     	L5.625,8.25z"/>
     </symbol>
     <symbol id="cust_user" viewBox="0 0 16 16">
		 <path d="M8,1.9c1.16,0,2.1,0.94,2.1,2.1S9.16,6.1,8,6.1S5.9,5.16,5.9,4S6.84,1.9,8,1.9 M8,10.9c2.97,0,6.1,1.46,6.1,2.1v1.1H1.9V13
			C1.9,12.36,5.03,10.9,8,10.9 M8,0C5.79,0,4,1.79,4,4s1.79,4,4,4s4-1.79,4-4S10.21,0,8,0z M8,9c-2.67,0-8,1.34-8,4v3h16v-3
			C16,10.34,10.67,9,8,9z"/>
     </symbol>
    <symbol id="cust_tracking_domains" viewBox="0 0 24 24">
        <path d="M0 0h24v24H0z" fill="none"/>
        <path d="M11.99 2C6.47 2 2 6.48 2 12s4.47 10 9.99 10C17.52 22 22 17.52 22 12S17.52 2 11.99 2zm6.93 6h-2.95c-.32-1.25-.78-2.45-1.38-3.56 1.84.63 3.37 1.91 4.33 3.56zM12 4.04c.83 1.2 1.48 2.53 1.91 3.96h-3.82c.43-1.43 1.08-2.76 1.91-3.96zM4.26 14C4.1 13.36 4 12.69 4 12s.1-1.36.26-2h3.38c-.08.66-.14 1.32-.14 2 0 .68.06 1.34.14 2H4.26zm.82 2h2.95c.32 1.25.78 2.45 1.38 3.56-1.84-.63-3.37-1.9-4.33-3.56zm2.95-8H5.08c.96-1.66 2.49-2.93 4.33-3.56C8.81 5.55 8.35 6.75 8.03 8zM12 19.96c-.83-1.2-1.48-2.53-1.91-3.96h3.82c-.43 1.43-1.08 2.76-1.91 3.96zM14.34 14H9.66c-.09-.66-.16-1.32-.16-2 0-.68.07-1.35.16-2h4.68c.09.65.16 1.32.16 2 0 .68-.07 1.34-.16 2zm.25 5.56c.6-1.11 1.06-2.31 1.38-3.56h2.95c-.96 1.65-2.49 2.93-4.33 3.56zM16.36 14c.08-.66.14-1.32.14-2 0-.68-.06-1.34-.14-2h3.38c.16.64.26 1.31.26 2s-.1 1.36-.26 2h-3.38z"/>
    </symbol>
    <symbol id="cust_sender_info" viewBox="0 0 24 24">
        <path d="M12 12c2.21 0 4-1.79 4-4s-1.79-4-4-4-4 1.79-4 4 1.79 4 4 4zm0 2c-2.67 0-8 1.34-8 4v2h16v-2c0-2.66-5.33-4-8-4z"/>
        <path d="M0 0h24v24H0z" fill="none"/>
    </symbol>
    <symbol id="cust_attach" viewBox="0 0 15.842 8.69">
        <path class="st0" d="M13.079,0h-9.21C1.736,0,0,1.949,0,4.345S1.736,8.69,3.869,8.69h8.289V7.862H3.869
            c-1.727,0-3.132-1.577-3.132-3.517s1.405-3.518,3.132-3.518h9.21c1.117,0,2.026,1.021,2.026,2.276c0,1.256-0.909,2.276-2.026,2.276
            H5.342c-0.508,0-0.921-0.464-0.921-1.034S4.834,3.31,5.342,3.31h6.816V2.483H5.342c-0.914,0-1.658,0.835-1.658,1.862
            c0,1.026,0.744,1.862,1.658,1.862h7.737c1.523,0,2.763-1.392,2.763-3.104S14.602,0,13.079,0z"/>
    </symbol>
    <symbol id="cust_undo" viewBox="0 0 10.055 11.463">
        <path class="st0" d="M8.158,5.069c-1.132-1.2-2.664-1.793-4.19-1.894L3.966,0L0,3.971l3.971,3.966L3.969,4.749
            c1.125,0.096,2.3,0.624,3.279,1.686c1.19,1.292,1.196,3.831,1.252,5.028c0.331-0.003,0.502-0.007,0.789-0.007
            c0.277,0,0.455,0.004,0.765-0.001C9.998,9.862,9.977,6.998,8.158,5.069z"/>
    </symbol>
    <symbol id="cust_redo" viewBox="0 0 10.055 11.463">
        <path class="st0" d="M1.896,5.069c1.132-1.2,2.664-1.793,4.19-1.894L6.088,0l3.966,3.971L6.084,7.937l0.002-3.188
            c-1.125,0.096-2.3,0.624-3.279,1.686c-1.19,1.292-1.196,3.831-1.252,5.028c-0.331-0.003-0.502-0.007-0.789-0.007
            c-0.277,0-0.455,0.004-0.765-0.001C0.057,9.862,0.077,6.998,1.896,5.069z"/>
    </symbol>
    <symbol id="cust_web" style="enable-background:new 0 0 13.123 13.923;" xml:space="preserve">
        <g>
        	<path d="M9.622,13.123c-1.101,0.58-2.221,0.8-3.561,0.8C2.78,13.923,0,11.522,0,7.682C0,3.561,2.86,0,7.301,0
        		c3.481,0,5.821,2.44,5.821,5.781c0,3.001-1.68,4.761-3.561,4.761c-0.8,0-1.541-0.54-1.48-1.76h-0.08c-0.7,1.18-1.62,1.76-2.82,1.76
        		c-1.161,0-2.161-0.94-2.161-2.521c0-2.48,1.96-4.741,4.741-4.741c0.86,0,1.62,0.18,2.14,0.42l-0.68,3.621
        		c-0.3,1.521-0.06,2.221,0.6,2.241c1.021,0.02,2.161-1.34,2.161-3.661c0-2.9-1.74-4.981-4.841-4.981C3.881,0.92,1.14,3.5,1.14,7.562
        		c0,3.34,2.18,5.401,5.141,5.401c1.14,0,2.2-0.24,3.021-0.7L9.622,13.123z M8.521,4.48c-0.2-0.06-0.54-0.14-1-0.14
        		c-1.76,0-3.181,1.66-3.181,3.601c0,0.88,0.44,1.521,1.32,1.521c1.16,0,2.22-1.48,2.44-2.721L8.521,4.48z"/>
        </g>
    </symbol>
     <symbol id="cust_employeeSatisfaction" viewBox="0 0 30.208 30.208"	 enable-background="new 0 0 30.208 30.208" xml:space="preserve">
     	<path d="M15.162,0.125c-8.27,0-14.998,6.728-14.998,14.999s6.728,14.999,14.998,14.999
     		c8.271,0,14.999-6.728,14.999-14.999S23.433,0.125,15.162,0.125z M15.162,27.99c-7.094,0-12.866-5.772-12.866-12.866
     		c0-7.095,5.772-12.866,12.866-12.866c7.095,0,12.866,5.772,12.866,12.866C28.028,22.219,22.256,27.99,15.162,27.99z"/>
     	<path d="M23.732,17.125H6.839c-0.29,0-0.526,0.423-0.526,0.714c0,0.047,0.015,0.184,0.027,0.227l-0.009,0.05
     		c0.018,0.067,1.875,6.722,8.983,6.722c7.118,0,8.91-6.625,8.927-6.692l-0.009,0.003c0.011-0.042,0.026-0.268,0.026-0.313
     		C24.257,17.545,24.022,17.125,23.732,17.125z"/>
     	<circle cx="9.606" cy="11.527" r="1.921"/>
     	<circle cx="20.218" cy="11.527" r="1.921"/>
     </symbol>
     <symbol id="cust_headphones" viewBox="0 0 24.559 30">
     		<path d="M12.28-0.008C5.458-0.008,0,5.449,0,12.271v9.551c0,2.319,1.774,4.093,4.093,4.093h4.093V15H2.729v-2.729
     			c0-5.321,4.23-9.551,9.551-9.551s9.551,4.23,9.551,9.551V15h-5.458v10.915h5.458v1.364H12.28v2.729h8.186
     			c2.319,0,4.093-1.774,4.093-4.093V12.271C24.559,5.449,19.102-0.008,12.28-0.008z"/>
     </symbol>
     <symbol id="cust_surveyBuilder" viewBox="0 0 30 24.559">
		<path d="M16.503,15.059v-0.665c0-0.81-0.658-1.467-1.467-1.467c-0.811,0-1.468,0.657-1.468,1.467v0.665
			c0,0.81,0.657,1.467,1.468,1.467C15.845,16.526,16.503,15.869,16.503,15.059z"/>
		<path d="M17.509,15.87c-0.325,1.065-1.305,1.847-2.473,1.847c-1.169,0-2.149-0.782-2.475-1.847H2.452
			c-0.638,0-1.241-0.148-1.782-0.406v6.712c0,1.311,1.072,2.383,2.383,2.383h23.964c1.311,0,2.383-1.072,2.383-2.383v-6.711
			c-0.541,0.257-1.144,0.406-1.781,0.406L17.509,15.87L17.509,15.87z"/>
		<path d="M27.519,3.817h-5.72C21.453,1.657,19.581,0,17.326,0h-4.584c-2.256,0-4.127,1.657-4.473,3.817H2.551
			c-1.365,0-2.482,1.072-2.482,2.383v5.5c0,1.315,1.067,2.383,2.383,2.383h9.996c0.034-0.684,0.328-1.302,0.794-1.747
			c0.014-0.013,0.031-0.024,0.046-0.038c0.103-0.095,0.21-0.184,0.328-0.262c0.042-0.028,0.089-0.047,0.133-0.072
			c0.097-0.055,0.192-0.113,0.296-0.156c0.082-0.034,0.17-0.054,0.256-0.079c0.074-0.022,0.144-0.051,0.221-0.067
			c0.167-0.034,0.339-0.052,0.515-0.052c0.176,0,0.348,0.018,0.514,0.052c0.076,0.015,0.147,0.045,0.222,0.067
			c0.086,0.026,0.173,0.045,0.256,0.08c0.104,0.043,0.198,0.1,0.295,0.155c0.043,0.026,0.091,0.045,0.134,0.073
			c0.117,0.077,0.224,0.166,0.327,0.261c0.015,0.014,0.033,0.024,0.046,0.039c0.466,0.446,0.76,1.062,0.794,1.747h9.996
			c1.316,0,2.383-1.067,2.383-2.383v-5.5C30.001,4.89,28.884,3.817,27.519,3.817z M10.565,3.817
			c0.304-0.918,1.16-1.587,2.179-1.587h4.584c1.018,0,1.874,0.669,2.178,1.587H10.565z"/>
     </symbol>
     <symbol id="cust_surveyCalendar" viewBox="0 0 27 30">
         <path d="M27,5.56C27,4.146,25.854,3,24.44,3H2.56C1.146,3,0,4.146,0,5.56v21.88C0,28.854,1.146,30,2.56,30h21.88
         	c1.414,0,2.56-1.146,2.56-2.56V5.56z M25,28H2V9h23V28z"/>
         <rect x="3" width="3" height="4"/>
         <rect x="21" width="3" height="4"/>
         <g>
         	<polygon points="11.927,23.895 7.252,19.221 8.707,17.765 11.927,20.983 18.556,14.355 20.012,15.81 	"/>
         </g>
     </symbol>
     <symbol id="cust_shoppingHabbits" viewBox="0 0 29.776 30">
		 <path d="M28.791,14.954L13.742,0C9.793,0.016,6.626,0.043,0.483,0C0.229-0.002,0.03,0.229,0,0.481C-0.006,0.533,0.055,9.083,0,13.89
			l14.945,14.917c1.596,1.596,4.194,1.596,5.79,0l7.554-7.561c0.917-0.913,1.486-2.325,1.486-3.684
			C29.776,16.5,29.435,15.599,28.791,14.954z M5.875,8.682c-1.356,0-2.459-1.103-2.459-2.46c0-1.356,1.103-2.459,2.459-2.459
			s2.46,1.103,2.46,2.459C8.335,7.578,7.231,8.682,5.875,8.682z M20.933,24.974c-1.158,1.161-1.986,2.212-2.671,2.886
			c-0.155,0.152-0.335,0.244-0.478,0.081c-0.6-0.685-1.865-2.092-2.949-3.051c-1.963-1.736-4.193-3.698-4.193-5.989
			c0-2.189,1.481-4.552,3.874-4.552c1.1,0,2.229,0.488,3.359,1.452c0.941-0.984,2.015-1.503,3.119-1.503
			c2.213,0,4.154,2.151,4.154,4.604C25.149,21.286,22.787,23.115,20.933,24.974z"/>
     </symbol>
     <symbol id="cust_marketResearch" viewBox="0 0 30 16.385">
     <path d="M29.971,2.774c0,1.497-1.225,2.722-2.722,2.722c-0.245,0-0.476-0.027-0.694-0.095l-4.845,4.832
     	c0.068,0.218,0.095,0.463,0.095,0.708c0,1.497-1.225,2.722-2.722,2.722s-2.722-1.225-2.722-2.722c0-0.245,0.027-0.49,0.095-0.708
     	l-3.471-3.471c-0.218,0.068-0.463,0.095-0.708,0.095s-0.49-0.027-0.708-0.095l-6.193,6.206c0.068,0.218,0.095,0.449,0.095,0.694
     	c0,1.497-1.225,2.722-2.722,2.722s-2.722-1.225-2.722-2.722s1.225-2.722,2.722-2.722c0.245,0,0.476,0.027,0.694,0.095l6.206-6.193
     	C9.583,4.625,9.556,4.38,9.556,4.135c0-1.497,1.225-2.722,2.722-2.722S15,2.638,15,4.135c0,0.245-0.027,0.49-0.095,0.708
     	l3.471,3.471c0.218-0.068,0.463-0.095,0.708-0.095s0.49,0.027,0.708,0.095l4.832-4.845c-0.068-0.218-0.095-0.449-0.095-0.694
     	c0-1.497,1.225-2.722,2.722-2.722S29.971,1.277,29.971,2.774z"/>
     </symbol>
     <symbol id="cust_checkMark" viewBox="0 0 30 27.204">
		<polygon points="22.33,23.12 4.136,23.12 4.136,4.926 18.337,4.926 22.42,0.842 0.052,0.842 0.052,27.204 26.414,27.204
			26.414,10.324 22.33,14.408 		"/>
		<polygon points="8.61,10.414 5.722,13.302 12.654,20.234 30,2.888 27.112,0 12.654,14.458"/>
     </symbol>
     <symbol id="cust_umbrella" viewBox="0 0 29.431 29.833">
     	<path d="M4.888,6.4c-0.836,0.36,0.878,13.037,7.092,16.037c1.638-1.558,7.994-8.461,9.408-9.866C18.15,7.009,7.905,5.101,4.888,6.4
     		z"/>
     	<path d="M3.805,7.009c-3.677,5.106-6.358,14.892,0.652,22.824c1.577-1.508,3.453-3.489,4.976-4.914
     		C1.931,19.763,3.866,10.14,3.805,7.009z"/>
     	<path d="M23.303,10.703c1.979-1.919,2.613-2.788,4.375-4.533C22.491-5.222,7.362,2.019,5.203,5.723
     		C7.483,5.146,19.062,1.174,23.303,10.703z"/>
     	<rect x="20.875" y="16.051" transform="matrix(0.6827 -0.7307 0.7307 0.6827 -9.8947 24.0614)" width="3.766" height="14.746"/>
     </symbol>
     <symbol id="cust_arrow_win_back_campaign" viewBox="0 0 59.598 59.245">
     <g>
     	<path fill="#36344B" d="M35.848,59.245H1.734C0.776,59.245,0,58.468,0,57.51s0.776-1.734,1.734-1.734h34.113
     		c11.183,0,20.282-9.099,20.282-20.283c0-11.184-9.099-20.282-20.282-20.282H2.509c-0.958,0-1.734-0.776-1.734-1.734
     		s0.776-1.734,1.734-1.734h33.339c13.096,0,23.751,10.655,23.751,23.751C59.598,48.59,48.944,59.245,35.848,59.245z"/>
     </g>
     <g>
     	<path fill="#009FFF" d="M10.692,28.058c-0.545,0-1.081-0.256-1.419-0.735L0.317,14.622c-0.448-0.635-0.418-1.491,0.072-2.094
     		L9.996,0.723c0.605-0.742,1.697-0.854,2.44-0.251c0.743,0.605,0.855,1.697,0.251,2.44L3.91,13.698l8.198,11.626
     		c0.552,0.783,0.365,1.865-0.418,2.417C11.386,27.955,11.037,28.058,10.692,28.058z"/>
     </g>
     </symbol>
     <symbol  id="cust_books" viewBox="0 0 56.924 59.245">
         <g>
         	<path fill="#36344B" d="M56.588,21.949H9.169C4.113,21.949,0,17.018,0,10.956C0,4.894,4.113-0.037,9.169-0.037h47.419v3.335H9.169
         		c-3.147,0-5.806,3.507-5.806,7.659c0,4.151,2.658,7.658,5.806,7.658h47.419V21.949z"/>
         </g>
         <g>
         	<path fill="none" stroke="#00ADEE" stroke-miterlimit="10" d="M11.376,25.431"/>
         </g>
         <g>
         	<path fill="#36344B" d="M55.575,59.252H9.125c-4.963,0-9.001-4.931-9.001-10.993s4.038-10.993,9.001-10.993h46.45v3.335H9.125
         		c-3.072,0-5.667,3.507-5.667,7.658s2.595,7.658,5.667,7.658h46.45V59.252z"/>
         </g>
         <g>
         	<path fill="#36344B" d="M56.924,40.601h-46.45c-4.963,0-9.001-4.931-9.001-10.994c0-6.062,4.038-10.993,9.001-10.993h46.45v3.335
         		h-46.45c-3.072,0-5.667,3.507-5.667,7.659c0,4.152,2.595,7.659,5.667,7.659h46.45V40.601z"/>
         </g>
         <polygon fill="#0B89F5" points="18.819,28.904 35.266,28.904 35.266,45.928 27.042,40.539 18.879,45.819 "/>
         <g>
         	<path fill="#36344B" d="M54.951,21.579c-0.204-0.102-4.999-2.583-4.999-10.629c0-8.046,4.795-10.528,4.999-10.63l1.511,2.973
         		c-0.129,0.07-3.175,1.785-3.175,7.657c0,5.871,3.046,7.586,3.175,7.656L54.951,21.579z"/>
         </g>
         <g>
         	<path fill="#36344B" d="M54.978,40.361c-0.204-0.103-4.99-2.618-4.99-10.763c0-8.144,4.786-10.659,4.99-10.762l1.504,2.975
         		l-0.752-1.488l0.777,1.475c-0.13,0.072-3.185,1.818-3.185,7.799c0,5.982,3.055,7.728,3.185,7.8L54.978,40.361z"/>
         </g>
         <g>
         	<path fill="#36344B" d="M53.115,58.746c-0.203-0.107-4.966-2.708-4.966-11.118c0-8.41,4.763-11.011,4.966-11.118l1.552,2.95
         		l-0.776-1.475l0.801,1.462c-0.131,0.075-3.209,1.907-3.209,8.18s3.077,8.104,3.209,8.179L53.115,58.746z"/>
         </g>
     </symbol>
     <symbol  id="cust_flag_welcome_series" viewBox="0 0 45.603 59.411">
         <g>
         	<path fill="#009FFF" d="M3.242,33.803c-0.786,0-1.456-0.601-1.528-1.399c-0.076-0.845,0.756-1.592,1.601-1.668L25,28.813V5.694
         		L3.338,4.093c-0.846-0.063-1.585-0.8-1.522-1.647c0.063-0.847,0.926-1.483,1.766-1.417L28,2.842v28.781L3.553,33.797
         		C3.506,33.801,3.288,33.803,3.242,33.803z"/>
         </g>
         <g>
         	<path fill="#009FFF" d="M44.066,37.444c-0.005,0.001-0.013,0.056-0.02,0.056H26.121C25.272,37.5,25,36.7,25,35.852V9.219
         		C25,8.37,25.272,7.5,26.121,7.5h17.926c0.613,0,1.168,0.456,1.411,1.02c0.242,0.564,0.126,1.264-0.295,1.709L34.161,21.882
         		l10.921,12.805c0.32,0.282,0.521,0.727,0.521,1.187C45.603,36.723,44.916,37.444,44.066,37.444z M28,34.5h12.714l-9.787-11.557
         		c-0.51-0.598-0.487-1.657,0.052-2.228L40.478,10.5H28V34.5z"/>
         </g>
         <g>
         	<path fill="#36344B" d="M1.5,59.411c-0.848,0-1.5-0.688-1.5-1.536V1.537C0,0.688,0.652,0,1.5,0S3,0.688,3,1.537v56.338
         		C3,58.724,2.348,59.411,1.5,59.411z"/>
         </g>
     </symbol>
     <symbol id="cust_new_blueprint" viewBox="0 0 59.083 59.411">
         <g>
         	<g>
         		<path fill="#36344B" d="M29.542,59.25C13.252,59.25,0,45.998,0,29.709S13.252,0.167,29.542,0.167s29.542,13.253,29.542,29.542
         			S45.831,59.25,29.542,59.25z M29.542,3.205c-14.614,0-26.503,11.889-26.503,26.503c0,14.614,11.889,26.503,26.503,26.503
         			s26.503-11.889,26.503-26.503C56.044,15.094,44.155,3.205,29.542,3.205z"/>
         	</g>
         	<g>
         		<path fill="#009FFF" d="M45.072,32.5H13.674c-0.839,0-1.519-0.661-1.519-1.5s0.68-1.5,1.519-1.5h31.399
         			c0.839,0,1.519,0.661,1.519,1.5S45.911,32.5,45.072,32.5z"/>
         	</g>
         	<g>
         		<path fill="#009FFF" d="M30,47.602c-0.839,0-1.5-0.681-1.5-1.519V14.684c0-0.839,0.661-1.519,1.5-1.519
         			c0.839,0,1.5,0.68,1.5,1.519v31.399C31.5,46.922,30.839,47.602,30,47.602z"/>
         	</g>
         </g>
     </symbol>
    <symbol id="cust_rotate" viewBox="0 0 21.506 18.953">
        <path class="st0" d="M21.194,5.144c-0.327-0.223-0.772-0.139-0.994,0.188l-1.459,2.14c-0.379-1.766-1.257-3.389-2.564-4.696
            C14.387,0.986,12.006,0,9.474,0S4.562,0.986,2.772,2.776c-3.696,3.696-3.696,9.709,0,13.405c1.848,1.848,4.275,2.772,6.702,2.772
            s4.855-0.924,6.702-2.772c0.279-0.279,0.279-0.733,0-1.012c-0.279-0.279-0.732-0.279-1.012,0c-3.138,3.138-8.244,3.138-11.381,0
            c-3.138-3.138-3.138-8.243,0-11.381c1.52-1.52,3.541-2.357,5.69-2.357c2.15,0,4.171,0.837,5.691,2.357
            c1.173,1.173,1.938,2.647,2.226,4.247l-2.539-1.732c-0.327-0.223-0.772-0.138-0.994,0.188c-0.223,0.326-0.138,0.771,0.188,0.994
            l3.788,2.584c0,0,0,0,0,0.001c0.06,0.041,0.124,0.071,0.19,0.091c0.002,0,0.004,0.001,0.006,0.002
            c0.011,0.003,0.022,0.005,0.034,0.008c0.057,0.014,0.115,0.023,0.173,0.023c0.229,0,0.453-0.109,0.592-0.313l2.553-3.743
            C21.604,5.812,21.52,5.367,21.194,5.144L21.194,5.144z M21.194,5.144"/>
    </symbol>
    <symbol id="cust_delete_cross" viewBox="0 0 18.398 18.609">
        <polygon class="st0" points="18.398,1.054 17.33,0 9.199,8.236 1.068,0 0,1.054 8.145,9.304 0,17.555 1.068,18.609 9.199,10.372
            17.33,18.609 18.398,17.555 10.253,9.304 "/>
    </symbol>
     <symbol id="cust_automation_people" viewBox="0 158.493 607 483.013" enable-background="new 0 158.493 607 483.013" xml:space="preserve">
     <path fill="#009FFF" d="M535.599,405.75h-6.835c-5.421,0-9.82-4.399-9.82-9.82V265.923c0-5.421,4.399-9.82,9.82-9.82h6.835
     	c5.421,0,9.82,4.399,9.82,9.82V395.93C545.419,401.36,541.02,405.75,535.599,405.75z"/>
     <path fill="#009FFF" d="M607,327.514v6.835c0,5.421-4.399,9.82-9.82,9.82H467.174c-5.421,0-9.82-4.399-9.82-9.82v-6.835
     	c0-5.421,4.399-9.82,9.82-9.82H597.18C602.61,317.694,607,322.084,607,327.514z"/>
     <g>
     	<path fill="#36344B" d="M423.897,475.825c-25.355-17.99-53.666-31.08-83.46-39.142c45.83-25.247,76.969-74.003,76.969-129.928
     		c-0.01-81.751-66.51-148.261-148.261-148.261s-148.261,66.51-148.261,148.261c0,55.659,30.864,104.199,76.35,129.545
     		c-5.666,1.483-11.303,3.103-16.91,4.949C94.812,469.363,29.362,535.304,0.746,622.161c-2.543,7.728,1.65,16.056,9.388,18.609
     		c1.532,0.501,3.083,0.737,4.606,0.737c6.187,0,11.951-3.918,13.993-10.115c25.66-77.892,84.265-136.988,160.802-162.157
     		c74.563-24.501,155.793-13.061,217.315,30.619c6.619,4.684,15.81,3.152,20.543-3.486
     		C432.097,489.73,430.526,480.538,423.897,475.825z M150.343,306.755c0-65.509,53.293-118.802,118.802-118.802
     		s118.802,53.293,118.802,118.802s-53.293,118.802-118.802,118.802S150.343,372.264,150.343,306.755z"/>
     	<path fill="#36344B" d="M457.344,500.296c-6.098-5.391-15.26-4.714-20.651,1.345c-5.401,6.059-4.753,15.457,1.296,20.867
     		c0.108,0.098,0.707,0.619,0.815,0.717c2.701,2.278,5.951,3.388,9.191,3.388c4.124,0,8.229-1.787,11.185-5.175
     		c5.293-6.078,4.468-15.496-1.522-20.867C457.619,500.551,457.364,500.316,457.344,500.296z"/>
     	<path fill="#36344B" d="M490.899,538.122l-1.237-1.758c-4.763-6.599-13.964-8.092-20.563-3.358
     		c-6.609,4.753-8.101,13.964-3.358,20.563l0.795,1.119c2.848,4.193,7.483,6.442,12.187,6.442c2.858,0,5.735-0.825,8.278-2.553
     		C493.727,554.011,495.475,544.849,490.899,538.122z"/>
     	<path fill="#36344B" d="M515.085,579.258l-0.756-1.473c-3.692-7.257-12.579-10.105-19.817-6.442
     		c-7.247,3.692-10.134,12.56-6.442,19.817l0.854,1.669c2.632,5.057,7.768,7.954,13.09,7.954c2.278,0,4.606-0.53,6.766-1.65
     		C515.999,595.373,518.827,586.476,515.085,579.258z"/>
     	<path fill="#36344B" d="M534.902,620.364l-0.255-0.54c-3.358-7.414-12.069-10.743-19.483-7.365
     		c-7.414,3.349-10.714,12.069-7.365,19.483l0.589,1.247c2.553,5.254,7.807,8.318,13.277,8.318c2.16,0,4.331-0.471,6.403-1.463
     		C535.383,636.489,538.447,627.69,534.902,620.364z"/>
     </g>
     </symbol>
     <symbol id="ic_play_circle" viewBox="0 0 24 24">
		<path d="M0 0h24v24H0z" fill="none"/>
		<path d="M12 2C6.48 2 2 6.48 2 12s4.48 10 10 10 10-4.48 10-10S17.52 2 12 2zm-2 14.5v-9l6 4.5-6 4.5z"/>
	</symbol>
	<symbol id="ic_pause_circle" viewBox="0 0 24 24">
		<path d="M0 0h24v24H0z" fill="none"/>
		<path d="M12 2C6.48 2 2 6.48 2 12s4.48 10 10 10 10-4.48 10-10S17.52 2 12 2zm-1 14H9V8h2v8zm4 0h-2V8h2v8z"/>
	</symbol>
	<symbol id="cust_sadface" viewBox="0 0 55.002 55" enable-background="new 0 0 55.002 55" xml:space="preserve">
     <g id="concerned">
     	<path fill="#4A4A4A" d="M27.502,0C12.313,0,0,12.312,0,27.5C0,42.688,12.313,55,27.502,55c15.188,0,27.5-12.313,27.5-27.5
     		C55.002,12.312,42.689,0,27.502,0z M27.502,53C13.44,53,2,41.561,2,27.5C2,13.439,13.44,2,27.502,2c14.061,0,25.5,11.44,25.5,25.5
     		C53.002,41.561,41.563,53,27.502,53z"/>
     	<circle fill="#4A4A4A" cx="19.797" cy="22" r="3"/>
     	<circle fill="#4A4A4A" cx="35.797" cy="22" r="3"/>
     	<path fill="#4A4A4A" d="M14.484,42.469h2c0-3.261,0-8.719,27.268-8.719v-2C19.38,31.75,14.484,35.852,14.484,42.469z"/>
     </g>
     </symbol>
     <symbol id="ic_insert_link" viewBox="0 0 24 24">
        <path d="M0 0h24v24H0z" fill="none"/>
        <path d="M3.9 12c0-1.71 1.39-3.1 3.1-3.1h4V7H7c-2.76 0-5 2.24-5 5s2.24 5 5 5h4v-1.9H7c-1.71 0-3.1-1.39-3.1-3.1zM8 13h8v-2H8v2zm9-6h-4v1.9h4c1.71 0 3.1 1.39 3.1 3.1s-1.39 3.1-3.1 3.1h-4V17h4c2.76 0 5-2.24 5-5s-2.24-5-5-5z"/>
    </symbol>
</svg>
